<?xml version="1.0" standalone="no"?>
<!DOCTYPE svg PUBLIC "-//W3C//DTD SVG 1.1//EN" "http://www.w3.org/Graphics/SVG/1.1/DTD/svg11.dtd" >
<svg xmlns="http://www.w3.org/2000/svg" xmlns:xlink="http://www.w3.org/1999/xlink" version="1.1">
<metadata>
Created by FontForge 20200427 at Fri Jan 18 11:20:25 2002
 By www
Copyright \251 2000, francois Bruel. All rights reserved.
</metadata>
<defs>
<font id="LondonTwo" horiz-adv-x="724" >
  <font-face 
    font-family="LondonTwo"
    font-weight="500"
    font-stretch="normal"
    units-per-em="1000"
    panose-1="2 0 6 4 4 0 0 2 0 4"
    ascent="800"
    descent="-200"
    x-height="475"
    cap-height="732"
    bbox="-238 -304 1192 995"
    underline-thickness="48"
    underline-position="-132"
    unicode-range="U+0005-E005"
  />
<missing-glyph horiz-adv-x="278" 
 />
    <glyph glyph-name=".notdef" horiz-adv-x="278" 
 />
    <glyph glyph-name="breve" horiz-adv-x="420" 
d="M286 712q-15 -42 -32 -61t-43 -19q-48 0 -73 80l-116 1q16 -39 33 -72t39 -57t50.5 -37.5t69.5 -13.5q61 0 108 45t76 135z" />
    <glyph glyph-name="dotaccent" horiz-adv-x="431" 
d="M218 707q-34 0 -59 -23.5t-25 -55.5q0 -16 7 -30.5t18.5 -25t26.5 -16.5t32 -6q35 0 59.5 23t24.5 55q0 16 -6.5 30t-18 25t-26.5 17.5t-33 6.5z" />
    <glyph glyph-name="ring" horiz-adv-x="454" 
d="M233 684q19 0 32 -13.5t13 -33.5q0 -18 -13 -31t-32 -13t-32 13t-13 31q0 20 13 33.5t32 13.5zM232 759q-26 0 -48.5 -9.5t-39.5 -25.5t-27 -37.5t-10 -46.5q0 -27 12 -49.5t31 -38.5t40.5 -24.5t41.5 -8.5q26 0 48.5 9.5t39 26t26 38.5t9.5 47t-9.5 46.5t-26 37.5
t-39 25.5t-48.5 9.5z" />
    <glyph glyph-name="hungarumlaut" unicode="&#xa;" horiz-adv-x="508" 
d="M508 741h-126l-150 -219h62zM308 741h-117l-146 -219h59z" />
    <glyph glyph-name="ogonek" horiz-adv-x="462" 
d="M303 -67q-14 -7 -27.5 -9t-24.5 -0.5t-18 6t-7 10.5q0 31 24.5 57.5t75.5 64.5h-116q-10 -3 -27 -12t-34 -25t-29.5 -40t-12.5 -58q0 -18 6.5 -37t20 -34.5t35 -25.5t52.5 -10q17 0 37.5 3t44.5 11v99z" />
    <glyph glyph-name="caron" horiz-adv-x="455" 
d="M285 519l146 227h-128l-73 -80l-74 80h-128l149 -227h108z" />
    <glyph glyph-name="dotlessi" unicode="&#xd;" horiz-adv-x="281" 
d="M202 516l-131 -54v-475h131v529z" />
    <glyph glyph-name="fraction" horiz-adv-x="188" 
d="M445 698h-137l-546 -745h137z" />
    <glyph glyph-name="fi" horiz-adv-x="542" 
d="M317 474h-98v22q0 44 15.5 73t49.5 29q24 0 39.5 -21.5t17.5 -63.5l129 24q-8 162 -179 162q-100 0 -151 -53.5t-51 -144.5v-27h-50l-27 -112h77v-400l130 36v364h70zM469 496l-130 -26v-483h130v509z" />
    <glyph glyph-name="fl" horiz-adv-x="603" 
d="M366 669q-26 15 -57 25.5t-54 10.5q-82 0 -126.5 -46t-44.5 -148v-49h-37l-25 -109h62v-366h131v366h76l26 109h-102v16q0 48 8 80.5t32 32.5q16 0 33 -10t32 -27zM494 715l-131 -41v-555q0 -36 15.5 -63t39.5 -45.5t52 -27.5t53 -9q19 0 41 4.5t34 14.5l12 128
q-18 -13 -38.5 -23t-37.5 -10q-7 0 -14 1.5t-13 7t-9.5 15t-3.5 25.5v578z" />
    <glyph glyph-name="Lslash" horiz-adv-x="548" 
d="M223 696h-136v-365l-112 -93v-149l112 93v-195h464l-38 114h-290v188l156 128v149l-156 -128v258z" />
    <glyph glyph-name="lslash" horiz-adv-x="270" 
d="M198 722l-131 -46v-320l-92 -78v-151l92 79v-219h131v328l93 78v151l-93 -81v259z" />
    <glyph glyph-name="Zcaron" horiz-adv-x="716" 
d="M665 622l20 75h-621l-45 -116h449l-426 -512l-30 -82h656l39 114h-470zM419 737l147 227h-129l-72 -80l-75 80h-128l149 -227h108z" />
    <glyph glyph-name="zcaron" horiz-adv-x="487" 
d="M448 415l20 70h-421l-35 -113h249l-233 -304l-16 -71h436l33 113h-264zM308 529l147 227h-129l-72 -80l-74 80h-128l149 -227h107z" />
    <glyph glyph-name="space" unicode=" " horiz-adv-x="339" 
 />
    <glyph glyph-name="exclam" unicode="!" horiz-adv-x="286" 
d="M268 50l-117 116l-121 -123l118 -116zM220 709h-145l8 -533h129z" />
    <glyph glyph-name="quotedbl" unicode="&#x22;" horiz-adv-x="366" 
d="M210 740l16 -293h88l15 293h-119zM39 740l14 -293h85l13 293h-112z" />
    <glyph glyph-name="numbersign" unicode="#" horiz-adv-x="711" 
d="M255 722l-39 -192h-140v-115h116l-22 -106h-94v-116h69l-39 -189h131l39 189h90l-39 -189h130l39 189h139v116h-114l22 106h92v115h-68l41 192h-131l-40 -192h-90l39 192h-131zM322 415h91l-22 -106h-90z" />
    <glyph glyph-name="dollar" unicode="$" horiz-adv-x="582" 
d="M525 600q-32 32 -77.5 55t-91.5 28v92l-108 -86q-59 -3 -99 -22.5t-64 -46t-34.5 -57t-10.5 -56.5q0 -33 10 -63.5t32 -56.5t57 -47.5t86 -36.5v-185q-39 7 -69.5 22.5t-68.5 50.5l-61 -103q45 -41 93.5 -63.5t105.5 -31.5v-92l107 88q61 4 101.5 27t65 53.5t34.5 64
t10 59.5q0 75 -47.5 122.5t-141.5 74.5v169q12 -1 28.5 -6t32.5 -13t30.5 -18.5t23.5 -21.5zM224 436q-33 13 -43.5 30.5t-10.5 31.5q0 21 14.5 40.5t39.5 20.5v-123zM356 256q31 -13 44 -29t13 -42q0 -28 -17 -47.5t-41 -21.5z" />
    <glyph glyph-name="percent" unicode="%" horiz-adv-x="829" 
d="M795 168q0 40 -15 74.5t-41 60.5t-61 41t-74 15t-74 -15t-60.5 -41t-40.5 -60.5t-15 -74.5q0 -39 15 -74t40.5 -60.5t60.5 -40.5t74 -15t74 15t61 40.5t41 60.5t15 74zM698 170q0 -20 -7.5 -36.5t-20 -29.5t-29.5 -20t-36 -7t-36 7t-29.5 19.5t-19.5 29.5t-7 37
q0 19 7 35.5t19.5 29t29.5 20t36 7.5t36 -7t29.5 -19.5t20 -29.5t7.5 -36zM404 524q0 39 -15 73.5t-41 60t-60 40.5t-73 15t-73.5 -15t-60 -40.5t-40.5 -60t-15 -73.5t15 -73.5t40.5 -60t60 -40.5t73.5 -15t73 15t60 40.5t41 60t15 73.5zM306 524q0 -19 -7.5 -36t-20 -29.5
t-29 -20t-35.5 -7.5t-36 7t-29.5 20t-20 29.5t-7.5 36.5q0 19 7.5 35.5t20 29.5t29.5 20.5t36 7.5t35.5 -7.5t29 -20t20 -29.5t7.5 -36zM743 698h-129l-560 -715h135z" />
    <glyph glyph-name="ampersand" unicode="&#x26;" horiz-adv-x="671" 
d="M467 356q-2 -18 -8 -40.5t-14 -39.5l-82 73q57 35 81.5 75t24.5 97q0 37 -15 67.5t-40 53t-58 35t-70 12.5q-44 0 -80 -13t-61.5 -36t-39.5 -54.5t-14 -68.5q0 -34 21 -68.5t59 -71.5q-68 -38 -99 -83.5t-31 -113.5q0 -39 18 -74.5t49 -62.5t72 -43.5t87 -16.5
q74 0 122.5 23.5t84.5 63.5l109 -105l92 85l-129 127q15 30 23.5 60t14.5 63zM280 438q-26 21 -40 40.5t-14 36.5q0 27 16 45t39 18q25 0 42.5 -16.5t17.5 -43.5q0 -50 -61 -80zM383 162q-18 -26 -48 -42t-63 -16q-39 0 -67 21t-28 59q0 32 16.5 57.5t58.5 46.5z" />
    <glyph glyph-name="quotesingle" unicode="'" horiz-adv-x="389" 
d="M43 591l153 -151l152 151l-152 152z" />
    <glyph glyph-name="parenleft" unicode="(" horiz-adv-x="394" 
d="M200 238q0 50 10.5 103t32 106.5t54 104.5t76.5 97l-84 74q-110 -111 -166.5 -233t-56.5 -252t56.5 -252t165.5 -231l90 68q-45 46 -78.5 98t-55.5 106t-33 107.5t-11 103.5z" />
    <glyph glyph-name="parenright" unicode=")" horiz-adv-x="392" 
d="M195 240q0 -50 -11 -103.5t-32.5 -107t-54.5 -105t-78 -97.5l88 -71q109 109 165.5 231.5t56.5 252.5t-58 253.5t-171 235.5l-74 -84q43 -45 74.5 -95t52.5 -102.5t31.5 -105.5t10.5 -102z" />
    <glyph glyph-name="asterisk" unicode="*" horiz-adv-x="538" 
d="M477 622l-92 93l-53 -61l-2 1l7 78h-136l5 -75l-1 -1l-49 59l-94 -93l67 -58v-2l-92 7v-124l94 7l1 -2l-71 -58l95 -92l50 57h1l-6 -77h135l-6 80l1 1l54 -62l93 93l-68 57l1 2l90 -9v125l-92 -6v2z" />
    <glyph glyph-name="plus" unicode="+" horiz-adv-x="703" 
d="M67 406v-114h224v-250l127 40v210h224v114h-224v245l-128 -40v-205h-223z" />
    <glyph glyph-name="comma" unicode="," horiz-adv-x="266" 
d="M208 149l-141 -44q10 -58 14 -92.5t4 -51.5q0 -14 -6 -27t-17 -30l67 -56q41 44 61.5 88.5t19.5 80.5z" />
    <glyph glyph-name="hyphen" unicode="-" horiz-adv-x="410" 
d="M374 311h-310l-25 -118h310z" />
    <glyph glyph-name="period" unicode="." horiz-adv-x="287" 
d="M264 54l-122 115l-118 -122l121 -116z" />
    <glyph glyph-name="slash" unicode="/" horiz-adv-x="361" 
d="M230 713l-228 -725l120 -35l227 726z" />
    <glyph glyph-name="zero" unicode="0" horiz-adv-x="631" 
d="M593 339q0 61 -16.5 125.5t-50 118t-86 88t-124.5 34.5t-123.5 -33t-85.5 -86t-50 -119.5t-16 -134.5q0 -80 20.5 -145t57 -111.5t87.5 -71.5t112 -25q56 0 106 24t88 70.5t60 113t21 152.5zM454 340q0 -47 -9 -91t-26.5 -78t-44 -54t-60.5 -20q-30 0 -55 17.5t-42.5 50
t-27.5 77.5t-10 100q0 52 10 97t28 77.5t43 51t55 18.5q36 0 62 -21.5t43 -56.5t25.5 -79t8.5 -89z" />
    <glyph glyph-name="one" unicode="1" horiz-adv-x="315" 
d="M225 748l-133 -74v-687h133v761z" />
    <glyph glyph-name="two" unicode="2" horiz-adv-x="579" 
d="M114 513q39 42 69.5 58.5t66.5 16.5q43 0 72 -29t29 -73q0 -31 -24 -75.5t-67.5 -105.5t-105 -140t-135.5 -178h527v117h-281q51 70 91.5 123.5t69 98t43.5 83t15 78.5q0 49 -17 89.5t-47 69.5t-70.5 45t-86.5 16q-57 0 -108.5 -22t-101.5 -65z" />
    <glyph glyph-name="three" unicode="3" horiz-adv-x="501" 
d="M117 535q26 20 56.5 37t60.5 17q16 0 30.5 -3.5t25.5 -11.5t18 -20.5t7 -31.5q0 -26 -12 -44t-33.5 -29.5t-50 -16t-61.5 -1.5l38 -107q60 -3 97 -33.5t37 -87.5q0 -23 -8.5 -42t-23 -33t-33.5 -21.5t-40 -7.5q-36 0 -71 10.5t-69 27.5l-58 -102q48 -28 99 -40.5
t104 -12.5q47 0 89 18t74 48.5t51 71.5t19 87q0 28 -9 56.5t-23.5 52.5t-34 41t-40.5 22q41 19 66 58t25 93q0 46 -18.5 79t-49 54t-69 31t-78.5 10q-45 0 -88 -18t-83 -46z" />
    <glyph glyph-name="four" unicode="4" horiz-adv-x="563" 
d="M445 745l-92 -49l-330 -482l-12 -65h301v-162h133v162h89v112h-89v484zM312 261h-109l109 166v-166z" />
    <glyph glyph-name="five" unicode="5" horiz-adv-x="520" 
d="M440 689h-324l-42 -389q35 16 71.5 23.5t69.5 7.5q54 0 91.5 -30t37.5 -91q0 -53 -32 -87t-82 -34q-36 0 -74.5 13.5t-86.5 45.5l-46 -115q56 -33 105 -48.5t100 -15.5q54 0 99.5 17.5t79 49.5t52 76t18.5 97q0 55 -17 98.5t-48 74.5t-73.5 47.5t-93.5 16.5h-23l16 126
h202v117z" />
    <glyph glyph-name="six" unicode="6" horiz-adv-x="545" 
d="M319 733q-48 -39 -96 -92.5t-86.5 -118.5t-62 -138.5t-23.5 -152.5q0 -60 17 -108t48 -82.5t75 -53t98 -18.5q49 0 90 15.5t71 43.5t46.5 67t16.5 85t-17 85.5t-46.5 68.5t-70 45.5t-87.5 16.5q-20 0 -40 -3t-37 -11q6 24 17 52t31.5 60.5t52.5 68.5t80 76zM184 239
q26 21 50 30.5t51 9.5q20 0 37.5 -8t30 -21.5t20 -31.5t7.5 -39q0 -19 -7 -35.5t-20 -28.5t-30 -19t-37 -7q-44 0 -73 35t-29 98v17z" />
    <glyph glyph-name="seven" unicode="7" horiz-adv-x="554" 
d="M551 698h-524v-118h328l-254 -565l118 -51z" />
    <glyph glyph-name="eight" unicode="8" horiz-adv-x="557" 
d="M137 356q-82 -58 -82 -163q0 -45 17.5 -84.5t48 -68.5t71.5 -46t89 -17q47 0 88 17t71 46.5t47.5 69.5t17.5 87q0 102 -84 159q35 28 53 63t18 80q0 43 -17 80.5t-46 65.5t-68 44t-83 16q-43 0 -81 -15.5t-67 -44t-46 -67.5t-17 -87q0 -82 70 -135zM280 412
q-34 0 -56.5 25t-22.5 62q0 36 22.5 61.5t54.5 25.5q34 0 57 -25t23 -60q0 -38 -21.5 -63.5t-56.5 -25.5zM278 294q39 0 66 -27.5t27 -67.5q0 -45 -25 -75t-65 -30q-20 0 -37 7.5t-29 20.5t-19 30.5t-7 36.5q0 21 6.5 40.5t18.5 33.5t28.5 22.5t35.5 8.5z" />
    <glyph glyph-name="nine" unicode="9" horiz-adv-x="559" 
d="M248 -48q48 39 96 92.5t86 118.5t61.5 138.5t23.5 152.5q0 60 -17 108t-48 82t-75 52.5t-98 18.5q-49 0 -90 -16t-71 -45t-46.5 -68.5t-16.5 -87.5q0 -45 17 -83.5t47 -66.5t70.5 -44t87.5 -16q20 0 38 4t37 11q-10 -24 -23.5 -53t-34.5 -62t-50.5 -69t-71.5 -73z
M383 446q-26 -21 -50 -30t-52 -9q-40 0 -67 28t-27 70q0 39 26.5 65.5t66.5 26.5q44 0 74 -35t30 -99v-9q0 -4 -1 -8z" />
    <glyph glyph-name="colon" unicode=":" horiz-adv-x="305" 
d="M275 396l-121 118l-119 -120l118 -119zM275 66l-121 119l-119 -121l118 -118z" />
    <glyph glyph-name="semicolon" unicode=";" horiz-adv-x="295" 
d="M269 392l-124 116l-117 -122l120 -116zM210 141l-142 -44q11 -58 15 -93t4 -51q0 -14 -6.5 -27t-17.5 -31l68 -56q40 45 60.5 89.5t20.5 79.5z" />
    <glyph glyph-name="less" unicode="&#x3c;" horiz-adv-x="557" 
d="M42 322l467 -275v135l-271 161l271 159v135l-436 -250z" />
    <glyph glyph-name="equal" unicode="=" horiz-adv-x="670" 
d="M49 512v-114h575v114h-575zM49 287v-114h575v114h-575z" />
    <glyph glyph-name="greater" unicode="&#x3e;" horiz-adv-x="582" 
d="M521 363l-467 274v-135l271 -160l-271 -160v-135l436 250z" />
    <glyph glyph-name="question" unicode="?" horiz-adv-x="377" 
d="M94 595q14 26 36.5 35.5t40.5 9.5q17 0 32 -17t15 -39q0 -42 -19.5 -77t-42.5 -66.5t-42.5 -63t-19.5 -66.5t12 -74.5t51 -77.5l78 71q-12 17 -16 33.5t-4 33.5q0 23 10 43.5t25 40.5t33 41t33 44.5t25 51t10 61.5q0 42 -14 74.5t-37.5 55t-54 34t-63.5 11.5
q-30 0 -67 -8.5t-70 -27.5zM301 60l-117 115l-122 -121l122 -117z" />
    <glyph glyph-name="at" unicode="@" horiz-adv-x="912" 
d="M620 494h-2q-25 41 -67.5 58t-87.5 17q-58 0 -107.5 -25t-85.5 -66.5t-56.5 -94.5t-20.5 -109q0 -54 14.5 -100t40.5 -79t61 -52t77 -19q21 0 45 6.5t46 17t38.5 24.5t22.5 29l2 -2q-4 -24 2.5 -42t19.5 -29t29.5 -16.5t33.5 -5.5q43 0 87.5 18.5t81 60t59.5 107
t23 159.5q0 64 -22.5 129.5t-70 118.5t-121.5 86.5t-176 33.5q-116 0 -201 -39t-140.5 -101t-82.5 -140.5t-27 -157.5q0 -96 33 -175.5t92.5 -136t142 -87.5t181.5 -31q51 0 102 9.5t96 25t79.5 35.5t52.5 41l-70 75q-53 -47 -121 -65.5t-146 -18.5q-71 0 -130 23.5
t-101 66.5t-65.5 103t-23.5 133q0 76 24 139.5t67.5 109t103 71t130.5 25.5q86 0 141.5 -27.5t88 -68.5t45 -88.5t12.5 -87.5q0 -69 -13 -114t-31 -72t-36.5 -38t-28.5 -11q-14 0 -20 19t1 50l74 340zM536 365q0 -32 -9.5 -70t-26.5 -71.5t-42 -56t-55 -22.5q-32 0 -53 29
t-21 77q0 28 8 64t24.5 68t41.5 53.5t59 21.5q33 0 53.5 -26t20.5 -67z" />
    <glyph glyph-name="A" unicode="A" horiz-adv-x="728" 
d="M393 715l-80 -34l-314 -681l119 -57l118 256h253l116 -254l122 55zM437 313h-149l74 163z" />
    <glyph glyph-name="B" unicode="B" horiz-adv-x="602" 
d="M79 697v-708h227q59 0 107 14t82 39.5t52.5 62.5t18.5 83q0 72 -33 117t-90 62q32 27 50 60.5t18 82.5q0 32 -11.5 65t-41 60t-81 44.5t-132.5 17.5h-166zM215 581h23q28 0 52.5 -4t42.5 -14t28 -27t10 -42q0 -42 -29 -66.5t-102 -24.5h-25v178zM215 290h67q45 0 73 -8.5
t44 -22t22 -30t6 -33.5q0 -16 -6 -32.5t-22 -30t-42.5 -22t-67.5 -8.5h-74v187z" />
    <glyph glyph-name="C" unicode="C" horiz-adv-x="749" 
d="M714 642q-83 38 -150 52.5t-128 14.5q-74 0 -142 -26.5t-120.5 -74.5t-84 -115t-31.5 -149q0 -78 29 -144t80 -115t121 -76.5t153 -27.5q60 0 128.5 14t148.5 56l-43 116q-40 -20 -73 -32.5t-61.5 -20t-53 -10.5t-47.5 -3q-53 0 -97.5 18t-76.5 50t-50 77t-18 98t18 98
t49.5 78t74.5 51.5t93 18.5q58 0 112 -17t113 -46z" />
    <glyph glyph-name="D" unicode="D" horiz-adv-x="794" 
d="M78 697v-708h281q105 0 177 32.5t116 84.5t63.5 115.5t19.5 126.5q0 58 -18 120t-63 113t-120 83.5t-189 32.5h-267zM214 581h134q55 0 100.5 -17t78.5 -47.5t51 -73.5t18 -95q0 -60 -19.5 -105.5t-52.5 -76.5t-76.5 -47t-91.5 -16h-142v478z" />
    <glyph glyph-name="E" unicode="E" horiz-adv-x="556" 
d="M532 697h-453v-708h455l-38 114h-281v185h265v114h-265v179h266z" />
    <glyph glyph-name="F" unicode="F" horiz-adv-x="522" 
d="M512 697h-432v-708h136v310h246v115h-246v167h246z" />
    <glyph glyph-name="G" unicode="G" horiz-adv-x="787" 
d="M713 639q-47 21 -83.5 34t-68 20t-60 9.5t-58.5 2.5q-83 0 -154 -27.5t-122.5 -75.5t-80.5 -114.5t-29 -144.5q0 -79 29.5 -146t82 -116t124 -76.5t155.5 -27.5q60 0 128 17t140 53v326l-134 -61v-190q-29 -13 -60.5 -19t-71.5 -6q-65 0 -112 20.5t-78.5 55t-46.5 78
t-15 90.5q0 53 18 97.5t49.5 77t75 51t94.5 18.5q48 0 103.5 -13.5t129.5 -52.5z" />
    <glyph glyph-name="H" unicode="H" horiz-adv-x="767" 
d="M688 696h-134v-302h-340v302h-136v-744l136 46v282h340v-282l134 -46v744z" />
    <glyph glyph-name="I" unicode="I" horiz-adv-x="298" 
d="M216 732l-136 -51v-692h136v743z" />
    <glyph glyph-name="J" unicode="J" horiz-adv-x="337" 
d="M265 730l-136 -51v-490q0 -45 -11.5 -66.5t-33.5 -24.5q-4 0 -21.5 0.5t-57.5 18.5l14 -132q21 -2 40 -4t28 -2q43 0 70.5 13t56.5 42q29 28 40 70.5t11 98.5v527z" />
    <glyph glyph-name="K" unicode="K" horiz-adv-x="606" 
d="M572 646l-91 83l-269 -281v271l-136 -38v-692h136v260l303 -288l91 84l-317 301z" />
    <glyph glyph-name="L" unicode="L" horiz-adv-x="549" 
d="M214 696h-136v-707h469l-50 114h-283v593z" />
    <glyph glyph-name="M" unicode="M" horiz-adv-x="828" 
d="M412 363l-233 316l-103 71v-801l136 49v422h2l198 -273l199 274h1v-423l136 -49v804l-102 -74z" />
    <glyph glyph-name="N" unicode="N" horiz-adv-x="818" 
d="M740 697h-135v-474l-418 468l-108 54v-756h136v477l421 -471l104 -53v755z" />
    <glyph glyph-name="O" unicode="O" horiz-adv-x="864" 
d="M812 341q0 76 -29.5 142.5t-81 115.5t-121 77.5t-149.5 28.5t-149.5 -28.5t-120.5 -77.5t-80.5 -115.5t-29.5 -142.5q0 -77 29.5 -143t80.5 -115.5t120.5 -77.5t149.5 -28t149.5 28t121 77.5t81 115.5t29.5 143zM674 341q0 -52 -18.5 -96.5t-51.5 -77.5t-77 -51.5
t-95 -18.5t-95 18.5t-76.5 51.5t-51.5 77.5t-19 96.5t19 96.5t51.5 77.5t76.5 51.5t95 18.5t95 -18.5t77 -51.5t51.5 -77.5t18.5 -96.5z" />
    <glyph glyph-name="P" unicode="P" horiz-adv-x="573" 
d="M78 697v-710h136v299h79q74 0 123 18.5t78.5 48t41.5 66.5t12 75q0 42 -14 78.5t-44 64.5t-76.5 44t-111.5 16h-224zM214 583h81q61 0 88 -26.5t27 -63.5q0 -19 -6.5 -36t-20.5 -29.5t-37 -20t-56 -7.5h-76v183z" />
    <glyph glyph-name="Q" unicode="Q" horiz-adv-x="862" 
d="M428 -25q80 0 150 28.5t122 78.5t82 117t30 145q0 77 -29 143.5t-80 115t-121 76.5t-151 28t-150.5 -28t-120.5 -77t-80 -116t-29 -144q0 -36 7.5 -72t21.5 -69.5t34 -63t46 -51.5q4 -93 13 -182.5t27 -174.5l124 -30q-2 15 -5 35.5t-6.5 54.5t-7 84.5t-6.5 124.5
q13 -7 29.5 -11.5t34.5 -7t35 -3.5t30 -1zM674 343q0 -51 -19.5 -96t-53 -78t-78 -52t-94.5 -19t-93.5 19t-76 52.5t-51 78t-18.5 95.5t19 95.5t51.5 77.5t76.5 52t95 19t95 -18.5t76.5 -51.5t51.5 -77.5t19 -96.5z" />
    <glyph glyph-name="R" unicode="R" horiz-adv-x="633" 
d="M79 697v-710h135v306h90l229 -338l110 69l-214 305q111 50 111 175q0 37 -13.5 72t-43.5 62t-78.5 43t-118.5 16h-207zM214 582h61q66 0 96 -24t30 -62q0 -42 -30.5 -65.5t-93.5 -23.5h-63v175z" />
    <glyph glyph-name="S" unicode="S" horiz-adv-x="560" 
d="M477 642q-102 63 -201 63q-47 0 -88.5 -16t-72 -44t-48.5 -65.5t-18 -80.5q0 -61 24 -96t60 -56.5t78.5 -33.5t78.5 -26.5t60 -36.5t24 -63q0 -16 -6 -32t-19.5 -29t-35 -21t-51.5 -8q-19 0 -39.5 7.5t-41 19t-41.5 25.5t-40 27l-50 -118q61 -39 116.5 -60t112.5 -21
q49 0 92 15t75 43.5t50.5 70t18.5 94.5q0 61 -24 97.5t-60 59t-78.5 35t-78.5 26t-60 32t-24 51.5q0 36 26 60t65 24q35 0 67 -15.5t77 -39.5z" />
    <glyph glyph-name="T" unicode="T" horiz-adv-x="653" 
d="M656 697h-618l-42 -116h256v-594h136v594h226z" />
    <glyph glyph-name="U" unicode="U" horiz-adv-x="753" 
d="M548 682v-375q0 -58 -16 -98.5t-41.5 -66t-58 -37t-65.5 -11.5q-34 0 -64.5 12t-53.5 37.5t-36.5 64.5t-13.5 92v382l-135 34v-417q0 -81 24 -142t65 -101.5t96 -61t118 -20.5q47 0 95.5 16t87.5 46v-39l132 -41v760z" />
    <glyph glyph-name="V" unicode="V" horiz-adv-x="654" 
d="M656 679l-122 52l-205 -494l-206 494l-123 -52l276 -669l75 -61z" />
    <glyph glyph-name="W" unicode="W" horiz-adv-x="1071" 
d="M534 450l171 -441l74 -70l293 741l-127 47l-186 -480l-197 492l-76 -53l-173 -447l-189 490l-124 -51l263 -671l76 -60z" />
    <glyph glyph-name="X" unicode="X" horiz-adv-x="753" 
d="M377 452l-251 280l-108 -76l271 -304l-288 -322l109 -76l267 301l272 -303l103 77l-286 323l268 305l-105 76z" />
    <glyph glyph-name="Y" unicode="Y" horiz-adv-x="656" 
d="M661 674l-115 56l-219 -257l-219 259l-116 -59l267 -318v-367h136v367z" />
    <glyph glyph-name="Z" unicode="Z" horiz-adv-x="719" 
d="M665 622l20 75h-621l-45 -116h449l-426 -512l-30 -82h656l39 114h-470z" />
    <glyph glyph-name="bracketleft" unicode="[" horiz-adv-x="391" 
d="M200 579h142l38 118h-310v-917h310l-38 118h-142v681z" />
    <glyph glyph-name="backslash" unicode="\" horiz-adv-x="367" 
d="M238 -55l117 39l-226 725l-120 -37z" />
    <glyph glyph-name="bracketright" unicode="]" horiz-adv-x="391" 
d="M189 -110h-144l-35 -118h310v917h-310l38 -117h141v-682z" />
    <glyph glyph-name="asciicircum" unicode="^" horiz-adv-x="744" 
d="M372 734l-261 -312l91 -76l170 203l167 -202l94 75z" />
    <glyph glyph-name="underscore" unicode="_" horiz-adv-x="550" 
d="M-6 -94v-120h565v120h-565z" />
    <glyph glyph-name="grave" unicode="`" horiz-adv-x="381" 
d="M68 729l160 -226l62 45l-141 229z" />
    <glyph glyph-name="a" unicode="a" horiz-adv-x="486" 
d="M425 -37v383q0 44 -16.5 72.5t-41.5 45t-53.5 23t-53.5 6.5q-48 0 -102.5 -10.5t-110.5 -44.5l53 -105q35 26 73.5 37.5t71.5 11.5q23 0 36.5 -12t13.5 -30v-21q-43 0 -88.5 -6t-82.5 -25.5t-61 -54.5t-24 -92q0 -29 12.5 -57t34 -51t50 -37t61.5 -14q16 0 35 1t37.5 3
t34.5 4.5t25 4.5zM295 103q-5 -2 -15 -4t-21.5 -3.5t-24 -2.5t-22.5 -1q-17 0 -28.5 14.5t-11.5 34.5q0 22 10.5 36t28 21.5t39.5 10t45 2.5v-108z" />
    <glyph glyph-name="b" unicode="b" horiz-adv-x="564" 
d="M59 20q55 -24 98.5 -34.5t92.5 -10.5q63 0 114.5 19t87.5 54.5t56 85t20 110.5q0 53 -17.5 97.5t-48 76.5t-73 50t-93.5 18q-36 0 -60 -4.5t-47 -14.5v258l-130 -38v-667zM189 335q28 22 50.5 29.5t50.5 7.5q45 0 74.5 -36t29.5 -94q0 -32 -10.5 -59.5t-28.5 -47.5
t-43.5 -31.5t-55.5 -11.5q-16 0 -32.5 2.5t-34.5 7.5v233z" />
    <glyph glyph-name="c" unicode="c" horiz-adv-x="515" 
d="M489 436q-52 23 -104.5 37.5t-87.5 14.5q-56 0 -104 -19t-82.5 -53.5t-54 -82.5t-19.5 -106q0 -55 19.5 -101t54 -79t83 -51.5t106.5 -18.5q18 0 41.5 3t50 9.5t54 15.5t53.5 21l-52 105q-55 -21 -86.5 -29t-57.5 -8q-61 0 -96.5 36t-35.5 99t35 101.5t92 38.5
q12 0 24.5 -1.5t29 -6t37.5 -11.5t50 -19z" />
    <glyph glyph-name="d" unicode="d" horiz-adv-x="577" 
d="M508 727l-131 -38v-212q-33 12 -83 12q-55 0 -101.5 -19t-80 -53t-52.5 -81t-19 -104q0 -54 19.5 -100.5t54 -81t80.5 -54t100 -19.5q35 0 62.5 7.5t60.5 15.5l90 -35v762zM377 118q-19 -11 -35 -18.5t-38 -7.5q-29 0 -52.5 11t-41 30.5t-27 45.5t-9.5 56t9 54.5
t25.5 42.5t39 28t49.5 10q21 0 39.5 -3.5t40.5 -16.5v-232z" />
    <glyph glyph-name="e" unicode="e" horiz-adv-x="520" 
d="M494 204q0 76 -20 130t-52 88.5t-71.5 50t-78.5 15.5q-54 0 -99 -18.5t-76.5 -51.5t-49 -79.5t-17.5 -101.5q0 -57 18.5 -104.5t52 -82t81 -54t105.5 -19.5q57 0 107.5 21.5t91.5 54.5l-57 100q-33 -29 -64 -44t-68 -15q-28 0 -52 8t-41.5 23t-27 35t-8.5 44h326z
M176 307q10 30 33 49.5t56 19.5t53.5 -21t27.5 -48h-170z" />
    <glyph glyph-name="f" unicode="f" horiz-adv-x="318" 
d="M366 669q-26 15 -57 25.5t-54 10.5q-82 0 -126.5 -46t-44.5 -148v-49h-37l-25 -109h62v-366h131v366h76l26 109h-102v16q0 48 8 80.5t32 32.5q16 0 33 -10t32 -27z" />
    <glyph glyph-name="g" unicode="g" horiz-adv-x="493" 
d="M247 492q-54 0 -92 -16.5t-62 -43t-35 -59.5t-11 -66q0 -18 4 -37.5t13.5 -38t24 -34.5t35.5 -26q-26 -9 -40.5 -21t-14.5 -37q0 -21 16 -35t30 -20l-11 -10q-40 -9 -61.5 -44.5t-21.5 -77.5q0 -30 14 -56t39 -45t59.5 -29.5t75.5 -10.5q52 0 101 15t86.5 39.5t60 57.5
t22.5 69q0 42 -15 67.5t-38 39.5t-50.5 19t-52.5 7t-44.5 3.5t-25.5 7.5q0 5 9 7.5t20 5.5q29 8 58 22.5t52 37t37 53.5t14 73q0 46 -18.5 80.5t-47 57.5t-63 34t-67.5 11zM314 308q0 -32 -20 -54t-49 -22q-30 0 -49.5 22.5t-19.5 54.5q0 31 19.5 52t48.5 21t49.5 -21.5
t20.5 -52.5zM350 -38q0 -12 -12.5 -24t-32 -21.5t-44.5 -16t-49 -6.5q-32 0 -47 10t-15 25q0 17 12 29t29 20t35.5 11.5t32.5 3.5q39 0 65 -5.5t26 -25.5z" />
    <glyph glyph-name="h" unicode="h" horiz-adv-x="534" 
d="M189 732l-130 -54v-691h130v358q22 13 41 20t48 7q39 0 58 -29t19 -80v-276h130v294q0 51 -15 90t-41.5 65t-63 39t-79.5 13q-29 0 -53 -6t-44 -13v263z" />
    <glyph glyph-name="i" unicode="i" horiz-adv-x="228" 
d="M176 515l-131 -54v-474h131v528zM115 755l-119 -120l119 -122l119 122z" />
    <glyph glyph-name="j" unicode="j" horiz-adv-x="276" 
d="M198 519l-129 -56v-473q0 -34 -3.5 -56t-14 -33.5t-31 -14.5t-54.5 0l33 -114q105 -5 152 51.5t47 166.5v529zM140 750l-116 -114l117 -114l113 114z" />
    <glyph glyph-name="k" unicode="k" horiz-adv-x="510" 
d="M466 404l-74 97l-203 -172v387l-130 -35v-694h130v175l231 -191l86 86l-231 188z" />
    <glyph glyph-name="l" unicode="l" horiz-adv-x="320" 
d="M201 720l-131 -41v-555q0 -36 15.5 -63t39.5 -45.5t52 -27.5t53 -9q19 0 41 4.5t34 14.5l11 128q-18 -13 -38 -23t-37 -10q-14 0 -27 8.5t-13 40.5v578z" />
    <glyph glyph-name="m" unicode="m" horiz-adv-x="800" 
d="M148 462l-90 49v-524h131v365q16 8 34.5 14.5t48.5 6.5q34 0 50.5 -25.5t16.5 -84.5v-276h131v302q0 15 -2.5 31t-3.5 20q19 15 40 23t50 8q39 0 53 -30.5t14 -78.5v-275h130v301q0 90 -44.5 145t-137.5 55q-54 0 -91 -13t-72 -30q-17 16 -47.5 29.5t-86.5 13.5
q-40 0 -70.5 -8.5t-53.5 -17.5z" />
    <glyph glyph-name="n" unicode="n" horiz-adv-x="543" 
d="M148 462l-89 48v-523h130v369q34 17 95 17q36 0 58 -28t22 -82v-276h130v293q0 106 -55.5 157.5t-147.5 51.5q-41 0 -77 -7t-66 -18v-2z" />
    <glyph glyph-name="o" unicode="o" horiz-adv-x="583" 
d="M551 230q0 55 -20 101.5t-54.5 81t-82.5 54t-103 19.5t-102 -19.5t-82 -54t-55 -81t-20 -101.5q0 -54 20 -101t55 -81t82 -53.5t102 -19.5t103 19.5t82.5 53.5t54.5 81t20 101zM416 230q0 -30 -9.5 -55.5t-26.5 -43.5t-39.5 -28.5t-49.5 -10.5q-26 0 -49 10.5t-40 28.5
t-26.5 43.5t-9.5 55.5t9.5 55.5t26.5 44.5t40 29.5t49 10.5q27 0 49.5 -11t39.5 -29.5t26.5 -44t9.5 -55.5z" />
    <glyph glyph-name="p" unicode="p" horiz-adv-x="552" 
d="M54 512v-743h130v216q20 -5 40.5 -7.5t41.5 -2.5q53 0 99 20t80 54.5t53.5 81.5t19.5 101q0 55 -19 101.5t-52 80.5t-79 53t-100 19q-32 0 -65.5 -5t-59.5 -14zM184 357q23 7 36.5 9t30.5 2q29 0 53 -10.5t41.5 -29t27.5 -44.5t10 -56q0 -60 -36.5 -97t-96.5 -37
q-18 0 -32.5 3t-33.5 11v249z" />
    <glyph glyph-name="q" unicode="q" horiz-adv-x="564" 
d="M505 491l-85 -28q-34 14 -66.5 19t-67.5 5q-53 0 -99 -20t-79.5 -55t-52.5 -83.5t-19 -105.5q0 -54 18 -99.5t50 -78.5t77 -51t98 -18q50 0 95 12v-218h131v721zM374 108q-24 -10 -43 -13t-42 -3q-54 0 -87 34.5t-33 93.5q0 32 9.5 59t26.5 47t40.5 31.5t50.5 11.5
q21 0 38 -3t40 -14v-244z" />
    <glyph glyph-name="r" unicode="r" horiz-adv-x="365" 
d="M399 447q-25 22 -59.5 33t-76.5 11q-36 0 -70.5 -11.5t-55.5 -27.5h-4l-81 50v-516h131v339q14 27 35 36t41 9q19 0 39 -9t37 -26z" />
    <glyph glyph-name="s" unicode="s" horiz-adv-x="480" 
d="M430 433q-41 29 -90 41.5t-94 12.5q-41 0 -78.5 -12.5t-66 -34t-45 -50t-16.5 -59.5q0 -44 20 -71t50.5 -43.5t66 -25t66 -15t50.5 -14t20 -20.5q0 -24 -23 -37t-52 -13q-37 0 -73 11.5t-84 34.5l-49 -102q100 -60 200 -60q42 0 80.5 10.5t68 31.5t47.5 51.5t18 71.5
q0 45 -20 72.5t-50.5 44t-66 24.5t-66 14.5t-50.5 14.5t-20 23q0 16 21.5 27t47.5 11q32 0 64.5 -8t66.5 -33z" />
    <glyph glyph-name="t" unicode="t" horiz-adv-x="366" 
d="M222 646l-130 -73v-98h-80v-108h80v-261q0 -33 12.5 -57.5t32 -40t44.5 -23t50 -7.5q12 0 29.5 3.5t37 9.5t39 14t35.5 16l-50 102q-24 -13 -42 -20.5t-38 -7.5q-15 0 -17.5 14.5t-2.5 48.5v209h118v108h-118v171z" />
    <glyph glyph-name="u" unicode="u" horiz-adv-x="546" 
d="M492 -62v537h-132v-362q-18 -11 -39 -14.5t-53 -3.5q-16 0 -32.5 5.5t-29.5 16t-21 27t-8 38.5v293h-131v-294q0 -57 21.5 -96t54 -63.5t70.5 -35t72 -10.5q35 0 72.5 6.5t64.5 16.5z" />
    <glyph glyph-name="v" unicode="v" horiz-adv-x="497" 
d="M504 464l-120 46l-131 -312l-137 312l-119 -47l207 -468l79 -45z" />
    <glyph glyph-name="w" unicode="w" horiz-adv-x="760" 
d="M765 460l-114 54l-127 -300l-116 311l-74 -57l-99 -254l-123 300l-115 -54l193 -458l78 -42l111 281l93 -237l75 -43z" />
    <glyph glyph-name="x" unicode="x" horiz-adv-x="561" 
d="M280 150l181 -195l102 75l-196 207l196 199l-101 76l-182 -187l-185 187l-95 -77l194 -198l-193 -205l95 -78z" />
    <glyph glyph-name="y" unicode="y" horiz-adv-x="499" 
d="M500 452l-110 62l-134 -273l-143 273l-110 -62l187 -351q-3 -7 -12 -24.5t-19 -34.5q-18 -35 -40 -57.5t-46 -36.5t-50 -22t-54 -13l50 -103q18 3 50 10.5t68.5 28.5t74.5 59t69 100z" />
    <glyph glyph-name="z" unicode="z" horiz-adv-x="483" 
d="M448 405l20 70h-421l-35 -113h249l-233 -304l-16 -71h436l33 113h-264z" />
    <glyph glyph-name="braceleft" unicode="{" horiz-adv-x="407" 
d="M50 160q25 -1 42 -7.5t27.5 -22t15.5 -41t5 -64.5v-93q0 -50 13.5 -83t41 -52.5t68.5 -27t95 -7.5v124q-23 0 -39 3t-26 11.5t-14 23t-4 38.5v68q0 80 -18.5 127.5t-52.5 67.5q34 20 52.5 68.5t18.5 129.5v67q0 24 4 38.5t14 22.5t26 11t39 3v125q-49 0 -89 -5.5
t-68.5 -24.5t-44.5 -54.5t-16 -95.5l-1 -92q-1 -69 -20.5 -97.5t-68.5 -30.5v-130z" />
    <glyph glyph-name="bar" unicode="|" horiz-adv-x="302" 
d="M84 689v-936l130 55v935z" />
    <glyph glyph-name="braceright" unicode="}" horiz-adv-x="407" 
d="M356 291q-48 1 -67.5 28t-19.5 91v90q0 58 -14 95.5t-41.5 59t-68.5 29t-96 5.5v-123q46 0 64.5 -12.5t18.5 -53.5v-91q0 -146 75 -182q-38 -19 -56.5 -63.5t-18.5 -120.5v-90q0 -41 -18.5 -53.5t-64.5 -12.5v-124q55 -2 96 5.5t68.5 29.5t41.5 59.5t14 95.5v90
q0 64 19.5 90.5t67.5 27.5v130z" />
    <glyph glyph-name="asciitilde" unicode="~" horiz-adv-x="721" 
d="M68 214q34 32 61.5 52.5t49.5 32.5t37.5 16.5t25.5 4.5q18 0 44 -11.5t56.5 -25.5t64 -25.5t66.5 -11.5q38 0 77 17t94 57v147q-66 -60 -108 -82t-65 -22q-15 0 -41 11.5t-57 25.5t-65.5 25.5t-66.5 11.5q-73 0 -173 -75v-148z" />
    <glyph glyph-name="quotesinglbase" unicode="&#x201a;" horiz-adv-x="277" 
d="M208 146l-154 -23l27 -125q-1 -17 -4.5 -30t-14.5 -31v-124q75 54 110.5 110.5t35.5 98.5v124z" />
    <glyph glyph-name="florin" unicode="&#x192;" horiz-adv-x="613" 
d="M403 431l29 140q6 27 12.5 40.5t22.5 13.5q26 0 49 -6t52 -16l25 111q-29 11 -48.5 17.5t-33.5 10t-25.5 4.5t-24.5 1q-41 0 -69.5 -12t-48 -30t-30.5 -40.5t-15 -43.5l-41 -190h-77l-22 -117h75l-78 -357q-5 -23 -12.5 -32.5t-21.5 -9.5q-23 0 -43.5 5.5t-54.5 16.5
l-26 -115q47 -17 77.5 -22.5t63.5 -5.5q68 0 104.5 33.5t53.5 115.5l82 371h100l28 117h-103z" />
    <glyph glyph-name="quotedblbase" unicode="&#x201e;" horiz-adv-x="511" 
d="M442 134l-153 -23l26 -124q0 -17 -4 -30.5t-16 -31.5v-124q75 54 111 110.5t36 98.5v124zM216 134l-154 -23l27 -124q-1 -17 -4.5 -30.5t-14.5 -31.5v-124q75 54 110.5 110.5t35.5 98.5v124z" />
    <glyph glyph-name="ellipsis" unicode="&#x2026;" horiz-adv-x="989" 
d="M923 54l-122 115l-118 -122l121 -116zM612 54l-122 115l-118 -122l121 -116zM310 54l-122 115l-118 -122l121 -116z" />
    <glyph glyph-name="dagger" unicode="&#x2020;" horiz-adv-x="551" 
d="M351 705h-152l17 -261l-189 12v-132l191 13l-18 -566h149l-17 566l191 -13v132l-189 -12z" />
    <glyph glyph-name="daggerdbl" unicode="&#x2021;" horiz-adv-x="552" 
d="M207 237l9 -130l-184 14v-131l184 12l-17 -233h151l-17 233l184 -12v131l-184 -14l10 130l-10 127l184 -12v132l-184 -14l17 233h-151l17 -233l-184 14v-132l184 12z" />
    <glyph glyph-name="circumflex" unicode="&#x2c6;" horiz-adv-x="374" 
d="M243 741h-108l-148 -227h127l75 80l72 -80h129z" />
    <glyph glyph-name="perthousand" unicode="&#x2030;" horiz-adv-x="1215" 
d="M1192 168q0 40 -15 74.5t-41 60.5t-60.5 41t-73.5 15t-74 -15t-61 -41t-41 -60.5t-15 -74.5q0 -39 15 -74t41 -60.5t61 -40.5t74 -15t73.5 15t60.5 40.5t41 60.5t15 74zM1095 169q0 -39 -27 -66.5t-66 -27.5q-19 0 -36 7t-29.5 20t-20 30t-7.5 37q0 19 7.5 36t20 30
t29.5 20t36 7q39 0 66 -27t27 -66zM795 168q0 40 -15 74.5t-41 60.5t-61 41t-74 15t-74 -15t-60.5 -41t-40.5 -60.5t-15 -74.5q0 -39 15 -74t40.5 -60.5t60.5 -40.5t74 -15t74 15t61 40.5t41 60.5t15 74zM698 170q0 -20 -7.5 -36.5t-20 -29.5t-29.5 -20t-36 -7t-36 7
t-29.5 19.5t-19.5 29.5t-7 37q0 19 7 35.5t19.5 29t29.5 20t36 7.5t36 -7t29.5 -19.5t20 -29.5t7.5 -36zM404 524q0 39 -15 73.5t-41 60t-60 40.5t-73 15t-73.5 -15t-60 -40.5t-40.5 -60t-15 -73.5t15 -73.5t40.5 -60t60 -40.5t73.5 -15t73 15t60 40.5t41 60t15 73.5z
M306 524q0 -19 -7.5 -36t-20 -29.5t-29 -20t-35.5 -7.5t-36 7t-29.5 20t-20 29.5t-7.5 36.5q0 19 7.5 35.5t20 29.5t29.5 20.5t36 7.5t35.5 -7.5t29 -20t20 -29.5t7.5 -36zM743 698h-129l-560 -715h135z" />
    <glyph glyph-name="Scaron" unicode="&#x160;" horiz-adv-x="550" 
d="M477 642q-102 63 -201 63q-47 0 -88.5 -16t-72 -44t-48.5 -65.5t-18 -80.5q0 -61 24 -96t60 -56.5t78.5 -33.5t78.5 -26.5t60 -36.5t24 -63q0 -16 -6 -32t-19.5 -29t-35 -21t-51.5 -8q-19 0 -39.5 7.5t-41 19t-41.5 25.5t-40 27l-50 -118q61 -39 116.5 -60t112.5 -21
q49 0 92 15t75 43.5t50.5 70t18.5 94.5q0 61 -24 97.5t-60 59t-78.5 35t-78.5 26t-60 32t-24 51.5q0 36 26 60t65 24q35 0 67 -15.5t77 -39.5zM336 737l147 227h-129l-72 -80l-75 80h-128l149 -227h108z" />
    <glyph glyph-name="guilsinglleft" unicode="&#x2039;" horiz-adv-x="410" 
d="M184 231l204 244h-161l-205 -244l203 -242h167z" />
    <glyph glyph-name="OE" unicode="&#x152;" horiz-adv-x="934" 
d="M888 697h-468q-98 0 -170 -31t-119.5 -81.5t-71 -114t-23.5 -128.5q0 -61 22 -124t69 -114.5t119 -84t173 -32.5h470l-23 114h-288v186h283v114h-283v182h282zM442 583v-482h-10q-66 0 -114.5 21t-80 55.5t-47 77.5t-15.5 87q0 41 14 83.5t44.5 77.5t78.5 57.5t117 22.5
h13z" />
    <glyph glyph-name="quoteleft" unicode="&#x2018;" horiz-adv-x="266" 
d="M58 427l155 38l-27 120q0 17 4 31t15 32v123q-75 -54 -111 -110t-36 -99v-135z" />
    <glyph glyph-name="quoteright" unicode="&#x2019;" horiz-adv-x="265" 
d="M204 754l-154 -37l27 -121q-1 -17 -4.5 -30.5t-14.5 -31.5v-123q75 55 110.5 110.5t35.5 98.5v134z" />
    <glyph glyph-name="quotedblleft" unicode="&#x201c;" horiz-adv-x="497" 
d="M286 447l154 28l-27 122q2 16 12 33.5t27 34.5l-44 101q-63 -46 -92.5 -96.5t-29.5 -95.5v-127zM58 447l154 30l-26 122q1 17 11.5 34.5t28.5 34.5l-47 98q-62 -46 -91.5 -96t-29.5 -94v-129z" />
    <glyph glyph-name="quotedblright" unicode="&#x201d;" horiz-adv-x="488" 
d="M432 767l-153 -29l25 -119q3 -11 -1.5 -23.5t-12.5 -24t-18 -21t-18 -13.5l66 -83q27 17 48 41t35 51.5t21.5 55.5t7.5 54v111zM211 767l-154 -29l25 -118q3 -11 -1.5 -23.5t-12 -24t-17 -21.5t-17.5 -16l64 -79q58 35 85.5 89.5t27.5 110.5v111z" />
    <glyph glyph-name="bullet" unicode="&#x2022;" horiz-adv-x="560" 
d="M285 494q-32 0 -60.5 -12t-50 -32.5t-34 -48t-12.5 -58.5t12.5 -58.5t34 -48t50 -32.5t60.5 -12q33 0 61.5 12t50 32.5t34 48t12.5 58.5t-12.5 58.5t-34 48t-50 32.5t-61.5 12z" />
    <glyph glyph-name="endash" unicode="&#x2013;" horiz-adv-x="557" 
d="M9 308l-27 -103h567l26 103h-566z" />
    <glyph glyph-name="emdash" unicode="&#x2014;" horiz-adv-x="1025" 
d="M5 308l-19 -103h1034l19 103h-1034z" />
    <glyph glyph-name="tilde" unicode="&#x2dc;" horiz-adv-x="395" 
d="M284 715q4 -18 1.5 -32t-7.5 -14q-14 0 -29 7t-32 15q-23 10 -47 17t-48 7q-65 0 -93.5 -42t-28.5 -120h108q-11 17 -5.5 31t11.5 14q16 0 35.5 -7.5t41.5 -15.5q21 -8 42 -15t40 -7q55 0 88 35q9 12 15 21t10 21.5t6 32t2 52.5h-110z" />
    <glyph glyph-name="trademark" unicode="&#x2122;" horiz-adv-x="769" 
d="M359 776v-435l122 38v114l58 -78l59 79v-115l122 -38v435l-93 -54l-88 -113l-86 113zM409 732h-345l-40 -106h126v-265h122v265h104z" />
    <glyph glyph-name="scaron" unicode="&#x161;" horiz-adv-x="480" 
d="M480 439q-41 29 -90 41t-94 12q-41 0 -78.5 -12.5t-66 -33.5t-45 -49.5t-16.5 -59.5q0 -44 20 -71t50.5 -43.5t66 -25.5t66 -15.5t50.5 -13.5t20 -21q0 -23 -23 -36t-52 -13q-37 0 -73 11.5t-84 34.5l-49 -102q100 -60 200 -60q42 0 80.5 10.5t68 31.5t47.5 51.5t18 70.5
q0 45 -20 73t-50.5 44.5t-66 24.5t-66 14.5t-50.5 14.5t-20 23q0 16 21.5 27t47.5 11q32 0 64.5 -8t66.5 -33zM294 524l147 228h-129l-72 -80l-75 80h-128l149 -228h108z" />
    <glyph glyph-name="guilsinglright" unicode="&#x203a;" horiz-adv-x="412" 
d="M226 231l-207 -242h162l207 242l-207 244h-162z" />
    <glyph glyph-name="oe" unicode="&#x153;" horiz-adv-x="878" 
d="M840 200q0 66 -15 119.5t-43.5 90.5t-71 57t-96.5 20q-44 0 -85 -18t-63 -53q-32 38 -72.5 54.5t-93.5 16.5q-57 0 -105 -19t-82 -52.5t-53 -80.5t-19 -104q0 -60 19.5 -107.5t53 -80.5t79 -50t97.5 -17q54 0 96 19.5t80 62.5q30 -40 70 -61t85 -21q52 0 105.5 16.5
t101.5 56.5l-49 96q-37 -31 -77 -45t-75 -14q-14 0 -29 7.5t-27.5 22t-21.5 36t-9 48.5h300zM546 310q1 35 25.5 54t52.5 19q32 0 53.5 -19t23.5 -54h-155zM407 240q0 -65 -32 -105t-83 -40q-26 0 -47.5 10.5t-37 28.5t-24.5 43.5t-9 55.5q0 62 33 99t88 37q51 0 81.5 -34.5
t30.5 -94.5z" />
    <glyph glyph-name="Ydieresis" unicode="&#x178;" horiz-adv-x="646" 
d="M710 674l-115 56l-219 -257l-219 259l-116 -59l267 -318v-367h136v367zM262 927l-103 -105l103 -102l104 102zM485 926l-106 -104l106 -103l103 103z" />
    <glyph glyph-name="exclamdown" unicode="&#xa1;" horiz-adv-x="290" 
d="M25 394l117 -116l121 123l-118 116zM73 -265h145l-8 533h-129z" />
    <glyph glyph-name="cent" unicode="&#xa2;" horiz-adv-x="518" 
d="M489 436q-52 23 -104.5 37.5t-87.5 14.5q-56 0 -104 -19t-82.5 -53.5t-54 -82.5t-19.5 -106q0 -55 19.5 -101t54 -79t83 -51.5t106.5 -18.5q18 0 41.5 3t50 9.5t54 15.5t53.5 21l-52 105q-55 -21 -86.5 -29t-57.5 -8q-61 0 -96.5 36t-35.5 99t35 101.5t92 38.5
q12 0 24.5 -1.5t29 -6t37.5 -11.5t50 -19zM245 697v-935l130 55v934z" />
    <glyph glyph-name="sterling" unicode="&#xa3;" horiz-adv-x="585" 
d="M505 685q-25 13 -53.5 17.5t-51.5 4.5q-45 0 -80.5 -21.5t-64.5 -62t-53.5 -99t-48.5 -132.5h-100v-117h67l-84 -317q12 4 30 11t38.5 13.5t41 11t37.5 4.5q32 0 67 -3t65 -7t51.5 -7t26.5 -3q18 0 40.5 2.5t45.5 7t44.5 12t37.5 18.5l-34 117q-30 -23 -64 -31.5
t-67 -8.5q-26 3 -47 6t-39.5 5t-37 3t-38.5 1h-24l43 165h122v117h-87q12 43 23.5 79.5t26 63t33.5 41.5t45 15t40 -10.5t27 -19.5z" />
    <glyph glyph-name="currency" unicode="&#xa4;" horiz-adv-x="653" 
d="M326 584q-34 0 -63.5 -9t-56.5 -24l-65 66l-87 -87l63 -63q-17 -27 -25.5 -56.5t-8.5 -65.5q0 -70 34 -122l-63 -63l87 -86l65 64q23 -14 52.5 -22.5t67.5 -8.5q68 0 121 31l66 -64l87 86l-65 63q16 25 26 55.5t10 66.5q0 68 -36 122l65 63l-87 87l-67 -66
q-26 15 -56.5 24t-63.5 9zM326 465q24 0 44.5 -9.5t36 -25.5t24.5 -38t9 -47t-9 -46.5t-24.5 -38t-36 -26t-44.5 -9.5t-44.5 9.5t-35.5 26t-24 38t-9 46.5t9 47t24 38t35.5 25.5t44.5 9.5z" />
    <glyph glyph-name="yen" unicode="&#xa5;" horiz-adv-x="654" 
d="M-3 725l198 -331h-141v-97h200v-33h-200v-103h200v-174h145v174h199v101h-199v36h199v96h-141l196 331h-161l-164 -286l-167 286h-164z" />
    <glyph glyph-name="brokenbar" unicode="&#xa6;" horiz-adv-x="310" 
d="M90 710v-385h131v385h-131zM90 231v-446h131v446h-131z" />
    <glyph glyph-name="section" unicode="&#xa7;" horiz-adv-x="464" 
d="M408 579q-16 61 -60.5 100t-111.5 39q-39 0 -71 -11.5t-55.5 -32.5t-36 -50.5t-12.5 -65.5q0 -29 8 -53.5t29 -58.5q-38 -42 -54 -86.5t-16 -82.5q0 -39 18.5 -72t45.5 -62t59.5 -54.5t59.5 -49.5t45.5 -47.5t18.5 -47.5q0 -20 -12.5 -33t-32.5 -13q-41 0 -49 89
l-121 -75q17 -63 62.5 -96t105.5 -33q79 0 127 41t48 109q0 33 -8 60.5t-28 59.5q39 47 54.5 90.5t15.5 81.5t-18 71.5t-45.5 62.5t-59.5 55.5t-59.5 51t-45.5 47.5t-18 47q0 18 13 30.5t30 12.5q20 0 33 -22t17 -62zM303 221q0 -18 -5 -40.5t-19 -40.5q-21 17 -42 32.5
t-37.5 31.5t-27 34t-10.5 40q0 20 5 41t19 41q11 -10 31 -25t39 -34t33 -39.5t14 -40.5z" />
    <glyph glyph-name="dieresis" unicode="&#xa8;" horiz-adv-x="463" 
d="M121 709l-103 -105l103 -102l104 102zM344 708l-106 -104l106 -103l103 103z" />
    <glyph glyph-name="copyright" unicode="&#xa9;" horiz-adv-x="851" 
d="M624 421q-27 85 -78.5 121.5t-117.5 36.5q-49 0 -88 -17.5t-66 -47.5t-41.5 -70t-14.5 -84q0 -49 15.5 -90.5t43 -72t66 -48t83.5 -17.5q37 0 69 13t57 36.5t42.5 54.5t25.5 67l-115 34q-10 -45 -28.5 -69.5t-53.5 -24.5t-56.5 34t-21.5 90q0 49 23.5 76.5t58.5 27.5
q51 0 76 -81zM425 743q-81 0 -152.5 -30.5t-125 -83t-84 -122.5t-30.5 -150t30.5 -149.5t84 -122t125 -82.5t152.5 -30t152 30t124.5 82.5t84 122t30.5 149.5t-30.5 150t-84 122.5t-124.5 83t-152 30.5zM425 626q54 0 101.5 -21t83 -57.5t56 -85.5t20.5 -105
q0 -55 -20.5 -103.5t-56 -85t-83 -57.5t-101.5 -21t-101.5 21t-83.5 57.5t-56.5 85t-20.5 103.5q0 56 20.5 105t56.5 85.5t83.5 57.5t101.5 21z" />
    <glyph glyph-name="ordfeminine" unicode="&#xaa;" horiz-adv-x="354" 
d="M307 343v259q0 51 -31.5 83.5t-97.5 32.5q-38 0 -74 -11t-79 -45l37 -70q18 9 31.5 17t26 13t25 8t26.5 3q11 0 16.5 -9t5.5 -18v-12q-81 -5 -125.5 -35t-44.5 -81q0 -22 9.5 -40.5t26 -32.5t39 -22t48.5 -8q19 0 37.5 7t38.5 16zM196 518v-45q-12 -10 -21.5 -13.5
t-20.5 -3.5q-28 0 -28 22q0 18 18.5 29t51.5 11z" />
    <glyph glyph-name="guillemotleft" unicode="&#xab;" horiz-adv-x="651" 
d="M425 231l206 244h-162l-207 -244l207 -242h162zM184 231l207 244h-162l-208 -244l208 -242h162z" />
    <glyph glyph-name="logicalnot" unicode="&#xac;" horiz-adv-x="709" 
d="M66 513v-116h448v-240l127 43v313h-575z" />
    <glyph glyph-name="registered" unicode="&#xae;" horiz-adv-x="853" 
d="M257 572l-2 -427h127v155h15l105 -171l118 58l-94 137q33 14 50.5 42.5t17.5 60.5q0 64 -42 104.5t-116 40.5h-179zM382 405v60l23 -2q35 -2 46 -7t11 -20q0 -17 -10.5 -24t-40.5 -7h-29zM427 742q-81 0 -153 -30.5t-125 -82.5t-84 -122.5t-31 -149.5q0 -80 31 -150
t84 -122.5t125 -82.5t153 -30t152 30t124.5 82.5t84 122.5t30.5 150q0 79 -30.5 149.5t-84 122.5t-124.5 82.5t-152 30.5zM427 625q54 0 101.5 -21t83 -57.5t56 -85.5t20.5 -104q0 -56 -20.5 -104.5t-56 -85t-83 -57.5t-101.5 -21t-102 21t-83.5 57.5t-56 85t-20.5 104.5
q0 55 20.5 104t56 85.5t83.5 57.5t102 21z" />
    <glyph glyph-name="macron" unicode="&#xaf;" horiz-adv-x="399" 
d="M367 694h-335v-121h335v121z" />
    <glyph glyph-name="degree" unicode="&#xb0;" horiz-adv-x="468" 
d="M234 718q-36 0 -67.5 -13t-54.5 -35.5t-36.5 -53t-13.5 -65.5t13.5 -65.5t36.5 -53t54.5 -36t67.5 -13.5t67.5 13.5t55.5 36t37.5 53t13.5 65.5t-13.5 65.5t-37.5 53t-55.5 35.5t-67.5 13zM234 617q24 0 41.5 -19t17.5 -46t-17.5 -46t-41.5 -19t-40 19t-16 46t16 46
t40 19z" />
    <glyph glyph-name="plusminus" unicode="&#xb1;" horiz-adv-x="714" 
d="M70 92v-114h575v114h-575zM70 442v-115h224l1 -205h127l-1 205h224v115h-224v225h-127v-225h-224z" />
    <glyph glyph-name="twosuperior" unicode="&#xb2;" horiz-adv-x="422" 
d="M94 582q13 14 24.5 24.5t23 17t24.5 10t31 3.5q15 0 25 -12.5t10 -26.5t-16 -41t-44.5 -62.5t-68 -77.5t-86.5 -87h377v103h-137q30 33 50 60t31 48t15.5 36.5t4.5 27.5q0 28 -12 52.5t-33.5 42.5t-50.5 28.5t-63 10.5q-37 0 -69.5 -8.5t-66.5 -34.5z" />
    <glyph glyph-name="threesuperior" unicode="&#xb3;" horiz-adv-x="387" 
d="M71 594q19 18 32 27.5t24 14.5t23 6t29 1q14 0 23 -11t9 -28q0 -14 -25 -22t-70 -8v-68q16 0 33.5 -1.5t32 -6.5t24 -13.5t9.5 -21.5q0 -18 -13 -28.5t-34 -10.5h-28t-21 2.5t-21 7.5t-27 15l-29 -96q30 -14 65 -22.5t72 -8.5q34 0 63.5 10t51.5 27.5t34 42t12 53.5
q0 62 -47 83v2q21 10 31.5 29.5t10.5 44.5q0 27 -11.5 49.5t-32 38.5t-48.5 25t-62 9q-41 0 -72.5 -10t-62.5 -33z" />
    <glyph glyph-name="acute" unicode="&#xb4;" horiz-adv-x="367" 
d="M340 721l-76 56l-141 -237l67 -42z" />
    <glyph glyph-name="mu" unicode="&#xb5;" horiz-adv-x="629" 
d="M100 474v-651h131v174q18 -9 37 -13.5t43 -4.5q46 0 81 19v-10h131v486h-131v-260q0 -34 -6 -56.5t-17 -36.5t-25.5 -20t-31.5 -6q-45 0 -63 35.5t-18 96.5v247h-131z" />
    <glyph glyph-name="paragraph" unicode="&#xb6;" horiz-adv-x="721" 
d="M681 746h-371q-59 0 -107.5 -16t-83 -46t-53 -72t-18.5 -94q0 -46 14.5 -85.5t41.5 -69.5t65 -49t85 -23v-444l143 -46v808h40v-792h143v792h61z" />
    <glyph glyph-name="periodcentered" unicode="&#xb7;" horiz-adv-x="359" 
d="M179 434q-19 0 -36 -6.5t-29.5 -18.5t-20 -28t-7.5 -34t7.5 -34t20 -28t29.5 -18.5t36 -6.5q39 0 66 25t27 62t-27 62t-66 25z" />
    <glyph glyph-name="periodcentered" unicode="&#x2219;" horiz-adv-x="359" 
d="M179 434q-19 0 -36 -6.5t-29.5 -18.5t-20 -28t-7.5 -34t7.5 -34t20 -28t29.5 -18.5t36 -6.5q39 0 66 25t27 62t-27 62t-66 25z" />
    <glyph glyph-name="cedilla" unicode="&#xb8;" horiz-adv-x="451" 
d="M295 0h-96l-31 -115q26 2 47 -2t21 -16q0 -18 -28 -19q-14 -1 -33 0t-45 7l-19 -87q14 -2 37.5 -7t36.5 -5q70 -1 110.5 24.5t40.5 78.5q0 33 -14.5 55t-38.5 29z" />
    <glyph glyph-name="onesuperior" unicode="&#xb9;" horiz-adv-x="328" 
d="M192 689h-58v-366h58v366z" />
    <glyph glyph-name="ordmasculine" unicode="&#xba;" horiz-adv-x="424" 
d="M396 547q0 35 -14.5 66t-39.5 53.5t-59 35.5t-73 13q-41 0 -74.5 -12.5t-58.5 -35t-38.5 -53t-13.5 -67.5t14 -68t39 -53.5t59 -35t73 -12.5q42 0 76 12t58.5 34t38 53.5t13.5 69.5zM275 547q0 -32 -18 -53t-47 -21t-46.5 20t-17.5 54q0 32 18 53t46 21q29 0 47 -21.5
t18 -52.5z" />
    <glyph glyph-name="guillemotright" unicode="&#xbb;" horiz-adv-x="651" 
d="M467 232l-207 -243h163l207 243l-207 243h-163zM226 232l-206 -243h162l208 243l-208 243h-162z" />
    <glyph glyph-name="onequarter" unicode="&#xbc;" horiz-adv-x="768" 
d="M673 397h-83l-212 -243v-62h189v-105h106v105h53v92h-53v213zM570 184h-54l54 63v-63zM219 697h-116v-408h116v408zM699 706h-136l-547 -745h137z" />
    <glyph glyph-name="onehalf" unicode="&#xbd;" horiz-adv-x="852" 
d="M243 697h-125v-399h125v399zM701 698h-135l-536 -736h136zM518 241q25 25 48 39.5t42 14.5q16 0 28 -10t12 -24q0 -17 -11.5 -38t-36 -52.5t-64 -76t-95.5 -107.5h365v103h-142q44 51 75 92t31 81q0 28 -11.5 53t-32 43.5t-48.5 29t-61 10.5q-42 0 -78.5 -16.5
t-74.5 -45.5z" />
    <glyph glyph-name="threequarters" unicode="&#xbe;" horiz-adv-x="781" 
d="M52 570q30 19 52 28t49 9q16 0 26.5 -9t10.5 -22q0 -23 -25 -32.5t-69 -9.5v-49q16 0 33.5 -1.5t32 -7.5t24 -17.5t9.5 -32.5q0 -17 -11.5 -27t-30.5 -10q-27 0 -52.5 5t-52.5 18l-25 -88q30 -14 64.5 -22.5t70.5 -8.5q34 0 63.5 10t51.5 27.5t34 42t12 53.5
q0 32 -11.5 53.5t-34.5 31.5v2q20 9 30.5 28t10.5 44q0 54 -42.5 88t-110.5 34q-41 0 -73 -10t-63 -33zM715 707h-136l-547 -745h137zM689 397h-81l-215 -223v-61h188v-126h108v126h53v83h-53v201zM586 193h-62l62 62v-62z" />
    <glyph glyph-name="questiondown" unicode="&#xbf;" horiz-adv-x="359" 
d="M276 -145q-14 -26 -36.5 -35.5t-40.5 -9.5t-32.5 17t-14.5 39q0 42 19.5 77t42.5 66.5t42.5 63t19.5 66.5t-12.5 74.5t-50.5 77.5l-78 -71q11 -17 15.5 -33.5t4.5 -33.5q0 -23 -10 -43.5t-25 -40.5t-33 -41t-33 -44.5t-25 -51.5t-10 -61q0 -42 14 -74.5t37.5 -55
t53.5 -34t63 -11.5q31 0 67.5 8.5t70.5 27.5zM68 390l117 -115l122 121l-121 117z" />
    <glyph glyph-name="Agrave" unicode="&#xc0;" horiz-adv-x="726" 
d="M393 715l-80 -34l-314 -681l119 -57l118 256h253l116 -254l122 55zM437 313h-149l74 163zM235 947l160 -226l62 45l-141 229z" />
    <glyph glyph-name="Aacute" unicode="&#xc1;" 
d="M393 715l-80 -34l-314 -681l119 -57l118 256h253l116 -254l122 55zM437 313h-149l74 163zM507 939l-76 56l-141 -237l67 -42z" />
    <glyph glyph-name="Acircumflex" unicode="&#xc2;" horiz-adv-x="726" 
d="M393 715l-80 -34l-314 -681l119 -57l118 256h253l116 -254l122 55zM437 313h-149l74 163zM410 959h-108l-148 -227h127l75 80l72 -80h129z" />
    <glyph glyph-name="Atilde" unicode="&#xc3;" 
d="M393 715l-80 -34l-314 -681l119 -57l118 256h253l116 -254l122 55zM437 313h-149l74 163zM451 933q4 -18 1.5 -32t-7.5 -14q-14 0 -29 7t-32 15q-23 10 -47 17t-48 7q-65 0 -93.5 -42t-28.5 -120h108q-11 17 -5.5 31t11.5 14q16 0 35.5 -7.5t41.5 -15.5q21 -8 42 -15
t40 -7q55 0 88 35q9 12 15 21t10 21.5t6 32t2 52.5h-110z" />
    <glyph glyph-name="Adieresis" unicode="&#xc4;" horiz-adv-x="727" 
d="M393 715l-80 -34l-314 -681l119 -57l118 256h253l116 -254l122 55zM437 313h-149l74 163zM252 927l-103 -105l103 -102l104 102zM474 926l-105 -104l105 -103l103 103z" />
    <glyph glyph-name="Aring" unicode="&#xc5;" 
d="M393 715l-80 -34l-314 -681l119 -57l118 256h253l116 -254l122 55zM437 313h-149l74 163zM357 893q20 0 33 -13t13 -33q0 -18 -13 -31t-33 -13q-19 0 -32 13t-13 31q0 20 13 33t32 13zM356 969q-26 0 -48.5 -9.5t-39.5 -25.5t-27 -37.5t-10 -46.5q0 -28 12 -50.5t31 -38
t40.5 -24t41.5 -8.5q26 0 48.5 9.5t39.5 26t26.5 38.5t9.5 47t-9.5 46.5t-26.5 37.5t-39.5 25.5t-48.5 9.5z" />
    <glyph glyph-name="AE" unicode="&#xc6;" horiz-adv-x="909" 
d="M853 699h-448l-444 -712h152l172 276h138v-276h439l-38 114h-270v187h261v115h-261v180h264zM420 493h2v-120h-72z" />
    <glyph glyph-name="Ccedilla" unicode="&#xc7;" horiz-adv-x="749" 
d="M714 642q-83 38 -150 52.5t-128 14.5q-74 0 -142 -26.5t-120.5 -74.5t-84 -115t-31.5 -149q0 -78 29 -144t80 -115t121 -76.5t153 -27.5q60 0 128.5 14t148.5 56l-43 116q-40 -20 -73 -32.5t-61.5 -20t-53 -10.5t-47.5 -3q-53 0 -97.5 18t-76.5 50t-50 77t-18 98t18 98
t49.5 78t74.5 51.5t93 18.5q58 0 112 -17t113 -46zM495 17h-96l-31 -115q26 2 47 -2t21 -16q0 -18 -28 -19q-14 -1 -33 0t-45 7l-19 -87q14 -2 37.5 -7t36.5 -5q70 -1 110.5 24.5t40.5 78.5q0 33 -14.5 55t-38.5 29z" />
    <glyph glyph-name="Egrave" unicode="&#xc8;" horiz-adv-x="566" 
d="M532 697h-453v-708h455l-38 114h-281v185h265v114h-265v179h266zM147 947l160 -226l62 45l-141 229z" />
    <glyph glyph-name="Eacute" unicode="&#xc9;" horiz-adv-x="562" 
d="M532 697h-453v-708h455l-38 114h-281v185h265v114h-265v179h266zM419 939l-76 56l-141 -237l67 -42z" />
    <glyph glyph-name="Ecircumflex" unicode="&#xca;" horiz-adv-x="569" 
d="M532 697h-453v-708h455l-38 114h-281v185h265v114h-265v179h266zM339 959h-108l-149 -227h128l74 80l73 -80h128z" />
    <glyph glyph-name="Edieresis" unicode="&#xcb;" horiz-adv-x="572" 
d="M532 697h-453v-708h455l-38 114h-281v185h265v114h-265v179h266zM184 927l-103 -105l103 -102l104 102zM406 926l-105 -104l105 -103l103 103z" />
    <glyph glyph-name="Igrave" unicode="&#xcc;" horiz-adv-x="297" 
d="M216 732l-136 -51v-692h136v743zM-18 947l160 -226l63 45l-142 229z" />
    <glyph glyph-name="Iacute" unicode="&#xcd;" horiz-adv-x="295" 
d="M216 732l-136 -51v-692h136v743zM278 939l-76 56l-141 -237l67 -42z" />
    <glyph glyph-name="Icircumflex" unicode="&#xce;" horiz-adv-x="297" 
d="M216 732l-136 -51v-692h136v743zM206 976h-108l-149 -228h128l75 80l72 -80h129z" />
    <glyph glyph-name="Idieresis" unicode="&#xcf;" horiz-adv-x="295" 
d="M216 732l-136 -51v-692h136v743zM34 935l-103 -105l103 -102l104 102zM257 935l-106 -105l106 -103l103 103z" />
    <glyph glyph-name="Eth" unicode="&#xd0;" 
d="M31 698v-297h-96v-114h96v-300h256q107 0 180 33t118 85.5t65 117t20 127.5q0 57 -18 118.5t-63 112.5t-120.5 84t-189.5 33h-248zM166 583h115q55 0 101 -17t79 -48t51.5 -74.5t18.5 -95.5q0 -60 -20 -106t-54 -77.5t-79 -47.5t-94 -16h-118v186h188v114h-188v182z" />
    <glyph glyph-name="Ntilde" unicode="&#xd1;" horiz-adv-x="814" 
d="M740 697h-135v-474l-418 468l-108 54v-756h136v477l421 -471l104 -53v755zM503 933q4 -18 1.5 -32t-7.5 -14q-14 0 -29 7t-32 15q-23 10 -47 17t-48 7q-65 0 -93.5 -42t-28.5 -120h108q-11 17 -5.5 31t11.5 14q16 0 35.5 -7.5t41.5 -15.5q21 -8 42 -15t40 -7q55 0 88 35
q9 12 15 21t10 21.5t6 32t2 52.5h-110z" />
    <glyph glyph-name="Ograve" unicode="&#xd2;" horiz-adv-x="864" 
d="M812 341q0 76 -29.5 142.5t-81 115.5t-121 77.5t-149.5 28.5t-149.5 -28.5t-120.5 -77.5t-80.5 -115.5t-29.5 -142.5q0 -77 29.5 -143t80.5 -115.5t120.5 -77.5t149.5 -28t149.5 28t121 77.5t81 115.5t29.5 143zM674 341q0 -52 -18.5 -96.5t-51.5 -77.5t-77 -51.5
t-95 -18.5t-95 18.5t-76.5 51.5t-51.5 77.5t-19 96.5t19 96.5t51.5 77.5t76.5 51.5t95 18.5t95 -18.5t77 -51.5t51.5 -77.5t18.5 -96.5zM296 947l160 -226l62 45l-141 229z" />
    <glyph glyph-name="Oacute" unicode="&#xd3;" horiz-adv-x="861" 
d="M812 341q0 76 -29.5 142.5t-81 115.5t-121 77.5t-149.5 28.5t-149.5 -28.5t-120.5 -77.5t-80.5 -115.5t-29.5 -142.5q0 -77 29.5 -143t80.5 -115.5t120.5 -77.5t149.5 -28t149.5 28t121 77.5t81 115.5t29.5 143zM674 341q0 -52 -18.5 -96.5t-51.5 -77.5t-77 -51.5
t-95 -18.5t-95 18.5t-76.5 51.5t-51.5 77.5t-19 96.5t19 96.5t51.5 77.5t76.5 51.5t95 18.5t95 -18.5t77 -51.5t51.5 -77.5t18.5 -96.5zM585 939l-76 56l-141 -237l67 -42z" />
    <glyph glyph-name="Ocircumflex" unicode="&#xd4;" horiz-adv-x="860" 
d="M812 341q0 76 -29.5 142.5t-81 115.5t-121 77.5t-149.5 28.5t-149.5 -28.5t-120.5 -77.5t-80.5 -115.5t-29.5 -142.5q0 -77 29.5 -143t80.5 -115.5t120.5 -77.5t149.5 -28t149.5 28t121 77.5t81 115.5t29.5 143zM674 341q0 -52 -18.5 -96.5t-51.5 -77.5t-77 -51.5
t-95 -18.5t-95 18.5t-76.5 51.5t-51.5 77.5t-19 96.5t19 96.5t51.5 77.5t76.5 51.5t95 18.5t95 -18.5t77 -51.5t51.5 -77.5t18.5 -96.5zM488 959h-108l-148 -227h127l75 80l72 -80h129z" />
    <glyph glyph-name="Otilde" unicode="&#xd5;" horiz-adv-x="861" 
d="M812 341q0 76 -29.5 142.5t-81 115.5t-121 77.5t-149.5 28.5t-149.5 -28.5t-120.5 -77.5t-80.5 -115.5t-29.5 -142.5q0 -77 29.5 -143t80.5 -115.5t120.5 -77.5t149.5 -28t149.5 28t121 77.5t81 115.5t29.5 143zM674 341q0 -52 -18.5 -96.5t-51.5 -77.5t-77 -51.5
t-95 -18.5t-95 18.5t-76.5 51.5t-51.5 77.5t-19 96.5t19 96.5t51.5 77.5t76.5 51.5t95 18.5t95 -18.5t77 -51.5t51.5 -77.5t18.5 -96.5zM514 933q4 -18 1.5 -32t-7.5 -14q-14 0 -29 7t-32 15q-23 10 -47 17t-48 7q-65 0 -93.5 -42t-28.5 -120h108q-11 17 -5.5 31t11.5 14
q16 0 35.5 -7.5t41.5 -15.5q21 -8 42 -15t40 -7q55 0 88 35q9 12 15 21t10 21.5t6 32t2 52.5h-110z" />
    <glyph glyph-name="Odieresis" unicode="&#xd6;" horiz-adv-x="860" 
d="M812 341q0 76 -29.5 142.5t-81 115.5t-121 77.5t-149.5 28.5t-149.5 -28.5t-120.5 -77.5t-80.5 -115.5t-29.5 -142.5q0 -77 29.5 -143t80.5 -115.5t120.5 -77.5t149.5 -28t149.5 28t121 77.5t81 115.5t29.5 143zM674 341q0 -52 -18.5 -96.5t-51.5 -77.5t-77 -51.5
t-95 -18.5t-95 18.5t-76.5 51.5t-51.5 77.5t-19 96.5t19 96.5t51.5 77.5t76.5 51.5t95 18.5t95 -18.5t77 -51.5t51.5 -77.5t18.5 -96.5zM325 927l-103 -105l103 -102l104 102zM547 926l-105 -104l105 -103l103 103z" />
    <glyph glyph-name="multiply" unicode="&#xd7;" horiz-adv-x="593" 
d="M50 511l158 -158l-158 -158l87 -86l158 158l158 -158l87 86l-158 158l158 158l-87 87l-158 -158l-158 158z" />
    <glyph glyph-name="Oslash" unicode="&#xd8;" horiz-adv-x="864" 
d="M232 207q-19 26 -29.5 60.5t-10.5 74.5q0 52 19 96.5t52 77.5t78 51.5t97 18.5q30 0 60 -7.5t51 -21.5zM239 27q41 -23 88.5 -36t105.5 -13q80 0 149.5 28t121 77t81 115.5t29.5 143.5q0 69 -23 127t-64 103l69 76l-102 70l-60 -66q-41 24 -90.5 39t-110.5 15
q-80 0 -149.5 -28.5t-120.5 -77t-80.5 -113t-29.5 -137.5q0 -72 23 -133.5t66 -110.5l-65 -70l101 -77zM638 472q18 -28 27.5 -59t9.5 -71q0 -52 -18.5 -97t-51 -78t-76.5 -51.5t-95 -18.5q-32 0 -60 8t-48 19z" />
    <glyph glyph-name="Ugrave" unicode="&#xd9;" horiz-adv-x="752" 
d="M548 682v-375q0 -58 -16 -98.5t-41.5 -66t-58 -37t-65.5 -11.5q-34 0 -64.5 12t-53.5 37.5t-36.5 64.5t-13.5 92v382l-135 34v-417q0 -81 24 -142t65 -101.5t96 -61t118 -20.5q47 0 95.5 16t87.5 46v-39l132 -41v760zM251 947l160 -226l62 45l-141 229z" />
    <glyph glyph-name="Uacute" unicode="&#xda;" horiz-adv-x="754" 
d="M548 682v-375q0 -58 -16 -98.5t-41.5 -66t-58 -37t-65.5 -11.5q-34 0 -64.5 12t-53.5 37.5t-36.5 64.5t-13.5 92v382l-135 34v-417q0 -81 24 -142t65 -101.5t96 -61t118 -20.5q47 0 95.5 16t87.5 46v-39l132 -41v760zM523 939l-76 56l-141 -237l67 -42z" />
    <glyph glyph-name="Ucircumflex" unicode="&#xdb;" horiz-adv-x="752" 
d="M548 682v-375q0 -58 -16 -98.5t-41.5 -66t-58 -37t-65.5 -11.5q-34 0 -64.5 12t-53.5 37.5t-36.5 64.5t-13.5 92v382l-135 34v-417q0 -81 24 -142t65 -101.5t96 -61t118 -20.5q47 0 95.5 16t87.5 46v-39l132 -41v760zM426 959h-108l-148 -227h127l75 80l72 -80h129z" />
    <glyph glyph-name="Udieresis" unicode="&#xdc;" horiz-adv-x="752" 
d="M548 682v-375q0 -58 -16 -98.5t-41.5 -66t-58 -37t-65.5 -11.5q-34 0 -64.5 12t-53.5 37.5t-36.5 64.5t-13.5 92v382l-135 34v-417q0 -81 24 -142t65 -101.5t96 -61t118 -20.5q47 0 95.5 16t87.5 46v-39l132 -41v760zM263 927l-103 -105l103 -102l104 102zM485 926
l-105 -104l105 -103l103 103z" />
    <glyph glyph-name="Yacute" unicode="&#xdd;" horiz-adv-x="661" 
d="M720 674l-116 56l-219 -257l-219 259l-116 -59l267 -318v-367h136v367zM515 939l-76 56l-141 -237l66 -42z" />
    <glyph glyph-name="Thorn" unicode="&#xde;" horiz-adv-x="560" 
d="M77 699v-712h136v151h60q74 0 123.5 18.5t79 47.5t41.5 66t12 75q0 42 -14 79t-44 65t-78 44.5t-115 16.5h-65v149h-136zM213 435h63q61 0 87.5 -27t26.5 -64q0 -19 -6.5 -36t-20.5 -29.5t-37 -20t-56 -7.5h-57v184z" />
    <glyph glyph-name="germandbls" unicode="&#xdf;" horiz-adv-x="560" 
d="M63 4l130 -50v516q0 26 4 49t13.5 40.5t26 27.5t42.5 10q36 0 57.5 -24t21.5 -62q0 -32 -25.5 -59.5t-72.5 -32.5v-97q60 -3 93 -33.5t33 -82.5q0 -51 -22 -81t-57 -30q-15 0 -25 2.5t-29 10.5l-39 -113q32 -11 50.5 -14.5t44.5 -3.5q46 0 84.5 17t66.5 47.5t43.5 73
t15.5 92.5q0 66 -27.5 108.5t-68.5 65.5q18 9 31 26t21 36t12 38t4 33q0 42 -15.5 77t-44 60.5t-67.5 39.5t-85 14q-104 0 -160 -59t-56 -168v-474z" />
    <glyph glyph-name="agrave" unicode="&#xe0;" horiz-adv-x="485" 
d="M425 -37v383q0 44 -16.5 72.5t-41.5 45t-53.5 23t-53.5 6.5q-48 0 -102.5 -10.5t-110.5 -44.5l53 -105q35 26 73.5 37.5t71.5 11.5q23 0 36.5 -12t13.5 -30v-21q-43 0 -88.5 -6t-82.5 -25.5t-61 -54.5t-24 -92q0 -29 12.5 -57t34 -51t50 -37t61.5 -14q16 0 35 1t37.5 3
t34.5 4.5t25 4.5zM295 103q-5 -2 -15 -4t-21.5 -3.5t-24 -2.5t-22.5 -1q-17 0 -28.5 14.5t-11.5 34.5q0 22 10.5 36t28 21.5t39.5 10t45 2.5v-108zM115 729l160 -226l62 45l-141 229z" />
    <glyph glyph-name="aacute" unicode="&#xe1;" horiz-adv-x="486" 
d="M425 -37v383q0 44 -16.5 72.5t-41.5 45t-53.5 23t-53.5 6.5q-48 0 -102.5 -10.5t-110.5 -44.5l53 -105q35 26 73.5 37.5t71.5 11.5q23 0 36.5 -12t13.5 -30v-21q-43 0 -88.5 -6t-82.5 -25.5t-61 -54.5t-24 -92q0 -29 12.5 -57t34 -51t50 -37t61.5 -14q16 0 35 1t37.5 3
t34.5 4.5t25 4.5zM295 103q-5 -2 -15 -4t-21.5 -3.5t-24 -2.5t-22.5 -1q-17 0 -28.5 14.5t-11.5 34.5q0 22 10.5 36t28 21.5t39.5 10t45 2.5v-108zM396 729l-76 56l-141 -237l67 -42z" />
    <glyph glyph-name="acircumflex" unicode="&#xe2;" horiz-adv-x="485" 
d="M425 -37v383q0 44 -16.5 72.5t-41.5 45t-53.5 23t-53.5 6.5q-48 0 -102.5 -10.5t-110.5 -44.5l53 -105q35 26 73.5 37.5t71.5 11.5q23 0 36.5 -12t13.5 -30v-21q-43 0 -88.5 -6t-82.5 -25.5t-61 -54.5t-24 -92q0 -29 12.5 -57t34 -51t50 -37t61.5 -14q16 0 35 1t37.5 3
t34.5 4.5t25 4.5zM295 103q-5 -2 -15 -4t-21.5 -3.5t-24 -2.5t-22.5 -1q-17 0 -28.5 14.5t-11.5 34.5q0 22 10.5 36t28 21.5t39.5 10t45 2.5v-108zM290 741h-108l-148 -227h127l75 80l72 -80h129z" />
    <glyph glyph-name="atilde" unicode="&#xe3;" horiz-adv-x="485" 
d="M425 -37v383q0 44 -16.5 72.5t-41.5 45t-53.5 23t-53.5 6.5q-48 0 -102.5 -10.5t-110.5 -44.5l53 -105q35 26 73.5 37.5t71.5 11.5q23 0 36.5 -12t13.5 -30v-21q-43 0 -88.5 -6t-82.5 -25.5t-61 -54.5t-24 -92q0 -29 12.5 -57t34 -51t50 -37t61.5 -14q16 0 35 1t37.5 3
t34.5 4.5t25 4.5zM295 103q-5 -2 -15 -4t-21.5 -3.5t-24 -2.5t-22.5 -1q-17 0 -28.5 14.5t-11.5 34.5q0 22 10.5 36t28 21.5t39.5 10t45 2.5v-108zM331 715q4 -18 1.5 -32t-7.5 -14q-14 0 -29 7t-32 15q-23 10 -47 17t-48 7q-65 0 -93.5 -42t-28.5 -120h108q-11 17 -5.5 31
t11.5 14q16 0 35.5 -7.5t41.5 -15.5q21 -8 42 -15t40 -7q55 0 88 35q9 12 15 21t10 21.5t6 32t2 52.5h-110z" />
    <glyph glyph-name="adieresis" unicode="&#xe4;" horiz-adv-x="484" 
d="M425 -37v383q0 44 -16.5 72.5t-41.5 45t-53.5 23t-53.5 6.5q-48 0 -102.5 -10.5t-110.5 -44.5l53 -105q35 26 73.5 37.5t71.5 11.5q23 0 36.5 -12t13.5 -30v-21q-43 0 -88.5 -6t-82.5 -25.5t-61 -54.5t-24 -92q0 -29 12.5 -57t34 -51t50 -37t61.5 -14q16 0 35 1t37.5 3
t34.5 4.5t25 4.5zM295 103q-5 -2 -15 -4t-21.5 -3.5t-24 -2.5t-22.5 -1q-17 0 -28.5 14.5t-11.5 34.5q0 22 10.5 36t28 21.5t39.5 10t45 2.5v-108zM137 717l-103 -105l103 -102l104 102zM359 717l-105 -105l105 -103l103 103z" />
    <glyph glyph-name="aring" unicode="&#xe5;" horiz-adv-x="484" 
d="M425 -37v383q0 44 -16.5 72.5t-41.5 45t-53.5 23t-53.5 6.5q-48 0 -102.5 -10.5t-110.5 -44.5l53 -105q35 26 73.5 37.5t71.5 11.5q23 0 36.5 -12t13.5 -30v-21q-43 0 -88.5 -6t-82.5 -25.5t-61 -54.5t-24 -92q0 -29 12.5 -57t34 -51t50 -37t61.5 -14q16 0 35 1t37.5 3
t34.5 4.5t25 4.5zM295 103q-5 -2 -15 -4t-21.5 -3.5t-24 -2.5t-22.5 -1q-17 0 -28.5 14.5t-11.5 34.5q0 22 10.5 36t28 21.5t39.5 10t45 2.5v-108zM255 684q19 0 32 -13.5t13 -33.5q0 -18 -13 -31t-32 -13t-32 13t-13 31q0 20 13 33.5t32 13.5zM254 759q-26 0 -48.5 -9.5
t-39.5 -25.5t-27 -37.5t-10 -46.5q0 -27 12 -49.5t31 -38.5t40.5 -24.5t41.5 -8.5q26 0 48.5 9.5t39 26t26 38.5t9.5 47t-9.5 46.5t-26 37.5t-39 25.5t-48.5 9.5z" />
    <glyph glyph-name="ae" unicode="&#xe6;" horiz-adv-x="715" 
d="M677 208q0 136 -49.5 207t-155.5 71q-36 0 -62 -11t-53 -37q-21 26 -47.5 37t-67.5 11q-54 0 -109 -18.5t-101 -54.5l58 -99q36 29 74.5 43t70.5 14q20 0 30.5 -12.5t10.5 -35.5v-5q-61 -5 -106.5 -17.5t-76 -35.5t-45.5 -58t-15 -86q0 -32 11.5 -58.5t32.5 -46
t49.5 -30.5t61.5 -11q37 0 73.5 12.5t87.5 45.5q29 -32 60 -45t70 -13q52 0 104.5 15.5t103.5 51.5l-52 105q-38 -32 -71.5 -44t-71.5 -12q-14 0 -29 5.5t-27.5 17t-20.5 30.5t-8 46v18h270zM411 306q1 27 18.5 48.5t43.5 21.5q25 0 46.5 -20.5t22.5 -49.5h-131zM276 121
q-24 -18 -43 -26t-36 -8q-15 0 -25 11.5t-10 28.5q0 37 25 58t89 24v-88z" />
    <glyph glyph-name="ccedilla" unicode="&#xe7;" horiz-adv-x="518" 
d="M489 436q-52 23 -104.5 37.5t-87.5 14.5q-56 0 -104 -19t-82.5 -53.5t-54 -82.5t-19.5 -106q0 -55 19.5 -101t54 -79t83 -51.5t106.5 -18.5q18 0 41.5 3t50 9.5t54 15.5t53.5 21l-52 105q-55 -21 -86.5 -29t-57.5 -8q-61 0 -96.5 36t-35.5 99t35 101.5t92 38.5
q12 0 24.5 -1.5t29 -6t37.5 -11.5t50 -19zM342 15h-96l-31 -115q27 2 48 -2t21 -16q0 -17 -28 -19q-15 -1 -33.5 0t-44.5 6l-19 -86q6 -1 16 -3t21 -4t21 -3.5t16 -1.5q70 -1 110.5 24.5t40.5 78.5q0 33 -15 55t-38 29z" />
    <glyph glyph-name="egrave" unicode="&#xe8;" horiz-adv-x="538" 
d="M494 204q0 76 -20 130t-52 88.5t-71.5 50t-78.5 15.5q-54 0 -99 -18.5t-76.5 -51.5t-49 -79.5t-17.5 -101.5q0 -57 18.5 -104.5t52 -82t81 -54t105.5 -19.5q57 0 107.5 21.5t91.5 54.5l-57 100q-33 -29 -64 -44t-68 -15q-28 0 -52 8t-41.5 23t-27 35t-8.5 44h326z
M176 307q10 30 33 49.5t56 19.5t53.5 -21t27.5 -48h-170zM141 729l160 -226l62 45l-141 229z" />
    <glyph glyph-name="eacute" unicode="&#xe9;" horiz-adv-x="540" 
d="M494 204q0 76 -20 130t-52 88.5t-71.5 50t-78.5 15.5q-54 0 -99 -18.5t-76.5 -51.5t-49 -79.5t-17.5 -101.5q0 -57 18.5 -104.5t52 -82t81 -54t105.5 -19.5q57 0 107.5 21.5t91.5 54.5l-57 100q-33 -29 -64 -44t-68 -15q-28 0 -52 8t-41.5 23t-27 35t-8.5 44h326z
M176 307q10 30 33 49.5t56 19.5t53.5 -21t27.5 -48h-170zM413 721l-76 56l-141 -237l67 -42z" />
    <glyph glyph-name="ecircumflex" unicode="&#xea;" horiz-adv-x="538" 
d="M494 204q0 76 -20 130t-52 88.5t-71.5 50t-78.5 15.5q-54 0 -99 -18.5t-76.5 -51.5t-49 -79.5t-17.5 -101.5q0 -57 18.5 -104.5t52 -82t81 -54t105.5 -19.5q57 0 107.5 21.5t91.5 54.5l-57 100q-33 -29 -64 -44t-68 -15q-28 0 -52 8t-41.5 23t-27 35t-8.5 44h326z
M176 307q10 30 33 49.5t56 19.5t53.5 -21t27.5 -48h-170zM324 741h-107l-149 -227h128l74 80l72 -80h129z" />
    <glyph glyph-name="edieresis" unicode="&#xeb;" horiz-adv-x="536" 
d="M494 204q0 76 -20 130t-52 88.5t-71.5 50t-78.5 15.5q-54 0 -99 -18.5t-76.5 -51.5t-49 -79.5t-17.5 -101.5q0 -57 18.5 -104.5t52 -82t81 -54t105.5 -19.5q57 0 107.5 21.5t91.5 54.5l-57 100q-33 -29 -64 -44t-68 -15q-28 0 -52 8t-41.5 23t-27 35t-8.5 44h326z
M176 307q10 30 33 49.5t56 19.5t53.5 -21t27.5 -48h-170zM169 709l-103 -105l103 -102l104 102zM392 708l-106 -104l106 -103l103 103z" />
    <glyph glyph-name="igrave" unicode="&#xec;" horiz-adv-x="270" 
d="M202 516l-131 -54v-475h131v529zM-44 729l160 -226l62 45l-141 229z" />
    <glyph glyph-name="iacute" unicode="&#xed;" horiz-adv-x="279" 
d="M202 516l-131 -54v-475h131v529zM268 721l-76 56l-141 -237l67 -42z" />
    <glyph glyph-name="icircumflex" unicode="&#xee;" horiz-adv-x="287" 
d="M207 516l-131 -54v-475h131v529zM193 758h-108l-149 -228h128l74 80l73 -80h128z" />
    <glyph glyph-name="idieresis" unicode="&#xef;" horiz-adv-x="294" 
d="M208 516l-131 -54v-475h131v529zM38 717l-103 -105l103 -102l104 102zM261 717l-106 -105l106 -103l103 103z" />
    <glyph glyph-name="eth" unicode="&#xf0;" horiz-adv-x="603" 
d="M446 224q0 -66 -37 -106t-99 -40q-31 0 -57 10.5t-45 29.5t-29.5 45t-10.5 56q0 31 11 57.5t29.5 46.5t44 31.5t55.5 11.5q31 0 56.5 -10.5t43.5 -29t28 -45t10 -57.5zM542 622l-46 99l-143 -58q-59 37 -131 61l-57 -107q18 -5 26 -7.5t23 -9.5l-88 -37l49 -94l148 60
q10 -6 19.5 -14.5t17 -18t13.5 -19t9 -15.5h-2q-25 11 -61 11q-60 0 -111 -19t-89 -53t-59.5 -79.5t-21.5 -99.5t20.5 -100t56 -80t84 -53.5t104.5 -19.5q63 0 113.5 20t86.5 57t55.5 90t19.5 118q0 97 -30 181.5t-98 148.5z" />
    <glyph glyph-name="ntilde" unicode="&#xf1;" horiz-adv-x="549" 
d="M148 462l-89 48v-523h130v369q34 17 95 17q36 0 58 -28t22 -82v-276h130v293q0 106 -55.5 157.5t-147.5 51.5q-41 0 -77 -7t-66 -18v-2zM363 715q4 -18 1.5 -32t-7.5 -14q-14 0 -29 7t-32 15q-23 10 -47 17t-48 7q-65 0 -93.5 -42t-28.5 -120h108q-11 17 -5.5 31t11.5 14
q16 0 35.5 -7.5t41.5 -15.5q21 -8 42 -15t40 -7q55 0 88 35q9 12 15 21t10 21.5t6 32t2 52.5h-110z" />
    <glyph glyph-name="ograve" unicode="&#xf2;" horiz-adv-x="586" 
d="M551 230q0 55 -20 101.5t-54.5 81t-82.5 54t-103 19.5t-102 -19.5t-82 -54t-55 -81t-20 -101.5q0 -54 20 -101t55 -81t82 -53.5t102 -19.5t103 19.5t82.5 53.5t54.5 81t20 101zM416 230q0 -30 -9.5 -55.5t-26.5 -43.5t-39.5 -28.5t-49.5 -10.5q-26 0 -49 10.5t-40 28.5
t-26.5 43.5t-9.5 55.5t9.5 55.5t26.5 44.5t40 29.5t49 10.5q27 0 49.5 -11t39.5 -29.5t26.5 -44t9.5 -55.5zM173 729l160 -226l62 45l-141 229z" />
    <glyph glyph-name="oacute" unicode="&#xf3;" horiz-adv-x="584" 
d="M551 230q0 55 -20 101.5t-54.5 81t-82.5 54t-103 19.5t-102 -19.5t-82 -54t-55 -81t-20 -101.5q0 -54 20 -101t55 -81t82 -53.5t102 -19.5t103 19.5t82.5 53.5t54.5 81t20 101zM416 230q0 -30 -9.5 -55.5t-26.5 -43.5t-39.5 -28.5t-49.5 -10.5q-26 0 -49 10.5t-40 28.5
t-26.5 43.5t-9.5 55.5t9.5 55.5t26.5 44.5t40 29.5t49 10.5q27 0 49.5 -11t39.5 -29.5t26.5 -44t9.5 -55.5zM445 721l-76 56l-141 -237l67 -42z" />
    <glyph glyph-name="ocircumflex" unicode="&#xf4;" horiz-adv-x="584" 
d="M551 230q0 55 -20 101.5t-54.5 81t-82.5 54t-103 19.5t-102 -19.5t-82 -54t-55 -81t-20 -101.5q0 -54 20 -101t55 -81t82 -53.5t102 -19.5t103 19.5t82.5 53.5t54.5 81t20 101zM416 230q0 -30 -9.5 -55.5t-26.5 -43.5t-39.5 -28.5t-49.5 -10.5q-26 0 -49 10.5t-40 28.5
t-26.5 43.5t-9.5 55.5t9.5 55.5t26.5 44.5t40 29.5t49 10.5q27 0 49.5 -11t39.5 -29.5t26.5 -44t9.5 -55.5zM348 741h-108l-148 -227h127l75 80l72 -80h129z" />
    <glyph glyph-name="otilde" unicode="&#xf5;" horiz-adv-x="587" 
d="M551 230q0 55 -20 101.5t-54.5 81t-82.5 54t-103 19.5t-102 -19.5t-82 -54t-55 -81t-20 -101.5q0 -54 20 -101t55 -81t82 -53.5t102 -19.5t103 19.5t82.5 53.5t54.5 81t20 101zM416 230q0 -30 -9.5 -55.5t-26.5 -43.5t-39.5 -28.5t-49.5 -10.5q-26 0 -49 10.5t-40 28.5
t-26.5 43.5t-9.5 55.5t9.5 55.5t26.5 44.5t40 29.5t49 10.5q27 0 49.5 -11t39.5 -29.5t26.5 -44t9.5 -55.5zM389 715q4 -18 1.5 -32t-7.5 -14q-14 0 -29 7t-32 15q-23 10 -47 17t-48 7q-65 0 -93.5 -42t-28.5 -120h108q-11 17 -5.5 31t11.5 14q16 0 35.5 -7.5t41.5 -15.5
q21 -8 42 -15t40 -7q55 0 88 35q9 12 15 21t10 21.5t6 32t2 52.5h-110z" />
    <glyph glyph-name="odieresis" unicode="&#xf6;" horiz-adv-x="583" 
d="M551 230q0 55 -20 101.5t-54.5 81t-82.5 54t-103 19.5t-102 -19.5t-82 -54t-55 -81t-20 -101.5q0 -54 20 -101t55 -81t82 -53.5t102 -19.5t103 19.5t82.5 53.5t54.5 81t20 101zM416 230q0 -30 -9.5 -55.5t-26.5 -43.5t-39.5 -28.5t-49.5 -10.5q-26 0 -49 10.5t-40 28.5
t-26.5 43.5t-9.5 55.5t9.5 55.5t26.5 44.5t40 29.5t49 10.5q27 0 49.5 -11t39.5 -29.5t26.5 -44t9.5 -55.5zM187 709l-103 -105l103 -102l104 102zM410 708l-106 -104l106 -103l103 103z" />
    <glyph glyph-name="divide" unicode="&#xf7;" horiz-adv-x="683" 
d="M54 420v-114h575v114h-575zM341 448q34 0 57 21.5t23 52.5t-23 52t-57 21q-35 0 -57 -21t-22 -52t22.5 -52.5t56.5 -21.5zM341 131q34 0 57 21t23 52t-23 52.5t-57 21.5q-35 0 -57 -21.5t-22 -52.5t22.5 -52t56.5 -21z" />
    <glyph glyph-name="oslash" unicode="&#xf8;" horiz-adv-x="603" 
d="M183 185q-15 18 -15 46q0 32 9.5 59t26.5 47t40.5 31t50.5 11q26 0 47 -12zM178 2q23 -10 53 -17t69 -7q55 0 102 19.5t81.5 53.5t53.5 80.5t19 100.5q0 51 -15 91t-42 74v136l-77 -74q-25 14 -56.5 22t-65.5 8q-55 0 -102 -19.5t-81 -54t-53.5 -81.5t-19.5 -102
q0 -51 14 -90.5t39 -68.5v-149zM417 286q10 -10 13.5 -23.5t3.5 -30.5q0 -31 -9 -57t-25 -45t-38 -29.5t-48 -10.5q-20 0 -32 3.5t-25 10.5z" />
    <glyph glyph-name="ugrave" unicode="&#xf9;" horiz-adv-x="552" 
d="M492 -62v537h-132v-362q-18 -11 -39 -14.5t-53 -3.5q-16 0 -32.5 5.5t-29.5 16t-21 27t-8 38.5v293h-131v-294q0 -57 21.5 -96t54 -63.5t70.5 -35t72 -10.5q35 0 72.5 6.5t64.5 16.5zM147 729l160 -226l62 45l-141 229z" />
    <glyph glyph-name="uacute" unicode="&#xfa;" horiz-adv-x="554" 
d="M492 -62v537h-132v-362q-18 -11 -39 -14.5t-53 -3.5q-16 0 -32.5 5.5t-29.5 16t-21 27t-8 38.5v293h-131v-294q0 -57 21.5 -96t54 -63.5t70.5 -35t72 -10.5q35 0 72.5 6.5t64.5 16.5zM419 721l-76 56l-141 -237l67 -42z" />
    <glyph glyph-name="ucircumflex" unicode="&#xfb;" horiz-adv-x="556" 
d="M492 -62v537h-132v-362q-18 -11 -39 -14.5t-53 -3.5q-16 0 -32.5 5.5t-29.5 16t-21 27t-8 38.5v293h-131v-294q0 -57 21.5 -96t54 -63.5t70.5 -35t72 -10.5q35 0 72.5 6.5t64.5 16.5zM326 741h-108l-148 -227h128l74 80l72 -80h129z" />
    <glyph glyph-name="udieresis" unicode="&#xfc;" horiz-adv-x="557" 
d="M492 -62v537h-132v-362q-18 -11 -39 -14.5t-53 -3.5q-16 0 -32.5 5.5t-29.5 16t-21 27t-8 38.5v293h-131v-294q0 -57 21.5 -96t54 -63.5t70.5 -35t72 -10.5q35 0 72.5 6.5t64.5 16.5zM167 711l-103 -105l103 -102l104 102zM390 711l-106 -105l106 -103l103 103z" />
    <glyph glyph-name="yacute" unicode="&#xfd;" horiz-adv-x="500" 
d="M510 454l-110 62l-134 -273l-143 273l-110 -62l187 -351q-3 -8 -12 -25.5t-19 -34.5q-18 -34 -40 -56.5t-46 -36.5t-50 -22t-54 -13l50 -103q18 2 50 10t68.5 29t74.5 59t69 100zM417 722l-76 56l-141 -236l66 -42z" />
    <glyph glyph-name="thorn" unicode="&#xfe;" horiz-adv-x="571" 
d="M195 696h-130v-926h130v219q23 -8 42 -10.5t39 -2.5q53 0 99.5 20t80.5 54.5t53.5 81.5t19.5 101q0 55 -19 101.5t-52.5 80.5t-79.5 53t-100 19q-21 0 -40 -2.5t-43 -10.5v222zM195 354q20 8 35 11.5t32 3.5q29 0 53 -10.5t41.5 -29t27 -44.5t9.5 -56q0 -60 -34 -97
t-91 -37q-20 0 -36.5 3.5t-36.5 11.5v244z" />
    <glyph glyph-name="ydieresis" unicode="&#xff;" horiz-adv-x="490" 
d="M500 462l-110 62l-134 -273l-143 273l-110 -62l187 -351q-3 -7 -12 -24.5t-19 -34.5q-18 -35 -40 -57.5t-46 -36.5t-50 -22t-54 -13l50 -103q18 3 50 10.5t68.5 28.5t74.5 59t69 100zM142 744l-103 -104l103 -103l104 103zM364 744l-105 -105l105 -103l103 103z" />
    <glyph glyph-name="Delta" unicode="&#xe000;" horiz-adv-x="386" 
d="M38 230l153 -151l152 151l-152 153z" />
    <glyph glyph-name="Omega" unicode="&#xe001;" horiz-adv-x="378" 
d="M36 347l152 -151l152 151l-152 152z" />
    <glyph glyph-name="greaterequal" unicode="&#xe002;" horiz-adv-x="566" 
d="M525 382l-467 274v-135l270 -160l-270 -160v-135l435 250zM47 27v-104h477v104h-477z" />
    <glyph glyph-name="lessequal" unicode="&#xe003;" horiz-adv-x="566" 
d="M43 345l467 -275v135l-271 161l271 159v135l-436 -250zM43 26v-101h469v101h-469z" />
    <glyph glyph-name="notequal" unicode="&#xe004;" horiz-adv-x="711" 
d="M68 520v-114h575v114h-575zM68 294v-113h575v113h-575zM410 782l-228 -725l120 -35l226 725z" />
    <glyph glyph-name="minus" unicode="&#xe005;" horiz-adv-x="738" 
d="M69 447v-134h598v134h-598z" />
    </font>
</defs>
</svg>
